<svg width="68" height="59" viewBox="0 0 68 59" fill="none" xmlns="http://www.w3.org/2000/svg">
<path d="M28.3333 56.4953H32.8667V47.8679H28.3333V56.4953ZM35.1333 56.4953H39.6667V47.8679H35.1333V56.4953ZM34 59H33.7167H1.13333C0.566667 59 0 58.4434 0 57.8868C0 57.0519 0.566667 56.7736 1.13333 56.7736H5.38333V6.12264C5.38333 5.28774 5.66667 5.00943 6.23333 5.00943H10.4833V1.11321C10.4833 0.556604 10.7667 0 11.6167 0H55.8167C56.3833 0 56.95 0.556604 56.95 1.11321V5.00943H61.4833C62.05 5.00943 62.6167 5.28774 62.6167 6.12264V56.7736H66.8667C67.4333 56.7736 68 57.0519 68 57.8868C68 58.4434 67.4333 59 66.8667 59H34.2833H34ZM33.7167 45.6415H34H34.2833H40.5167C41.3667 45.6415 41.65 46.1981 41.65 46.7547V56.7736H60.35V40.6321H35.9833C35.4167 40.6321 35.1333 40.0755 35.1333 39.5189C35.1333 38.9623 35.4167 38.4057 35.9833 38.4057H60.35V32.283H35.9833C35.4167 32.283 35.1333 31.7264 35.1333 31.1698C35.1333 30.6132 35.4167 30.0566 35.9833 30.0566H60.35V24.2123H35.9833C35.4167 24.2123 35.1333 23.6557 35.1333 22.8208C35.1333 22.2642 35.4167 21.7075 35.9833 21.7075H60.35V15.8632H35.9833C35.4167 15.8632 35.1333 15.3066 35.1333 14.75C35.1333 14.1934 35.4167 13.6368 35.9833 13.6368H60.35V7.23585H55.8167H11.6167H7.36667V56.7736H26.0667V46.7547C26.0667 46.1981 26.6333 45.6415 27.2 45.6415H33.7167ZM54.6833 5.00943V2.50472H12.4667V5.00943H54.6833ZM15.8667 40.6321H13.6C12.75 40.6321 12.4667 40.0755 12.4667 39.5189C12.4667 38.9623 12.75 38.4057 13.6 38.4057H15.8667C16.4333 38.4057 17 38.9623 17 39.5189C17 40.0755 16.4333 40.6321 15.8667 40.6321ZM29.1833 40.6321H21.8167C21.25 40.6321 20.9667 40.0755 20.9667 39.5189C20.9667 38.9623 21.25 38.4057 21.8167 38.4057H29.1833C29.75 38.4057 30.3167 38.9623 30.3167 39.5189C30.3167 40.0755 29.75 40.6321 29.1833 40.6321ZM15.8667 32.283H13.6C12.75 32.283 12.4667 31.7264 12.4667 31.1698C12.4667 30.6132 12.75 30.0566 13.6 30.0566H15.8667C16.4333 30.0566 17 30.6132 17 31.1698C17 31.7264 16.4333 32.283 15.8667 32.283ZM29.1833 32.283H21.8167C21.25 32.283 20.9667 31.7264 20.9667 31.1698C20.9667 30.6132 21.25 30.0566 21.8167 30.0566H29.1833C29.75 30.0566 30.3167 30.6132 30.3167 31.1698C30.3167 31.7264 29.75 32.283 29.1833 32.283ZM15.8667 24.2123H13.6C12.75 24.2123 12.4667 23.6557 12.4667 22.8208C12.4667 22.2642 12.75 21.7075 13.6 21.7075H15.8667C16.4333 21.7075 17 22.2642 17 22.8208C17 23.6557 16.4333 24.2123 15.8667 24.2123ZM29.1833 24.2123H21.8167C21.25 24.2123 20.9667 23.6557 20.9667 22.8208C20.9667 22.2642 21.25 21.7075 21.8167 21.7075H29.1833C29.75 21.7075 30.3167 22.2642 30.3167 22.8208C30.3167 23.6557 29.75 24.2123 29.1833 24.2123ZM15.8667 15.8632H13.6C12.75 15.8632 12.4667 15.3066 12.4667 14.75C12.4667 14.1934 12.75 13.6368 13.6 13.6368H15.8667C16.4333 13.6368 17 14.1934 17 14.75C17 15.3066 16.4333 15.8632 15.8667 15.8632ZM29.1833 15.8632H21.8167C21.25 15.8632 20.9667 15.3066 20.9667 14.75C20.9667 14.1934 21.25 13.6368 21.8167 13.6368H29.1833C29.75 13.6368 30.3167 14.1934 30.3167 14.75C30.3167 15.3066 29.75 15.8632 29.1833 15.8632Z" fill="white"/>
</svg>
