<svg width="78" height="82" viewBox="0 0 78 82" fill="none" xmlns="http://www.w3.org/2000/svg">
<g clip-path="url(#clip0_0_269)">
<path d="M5.55699 14.8429C5.55699 14.2381 5.96114 13.8349 6.56736 13.8349C7.07254 13.8349 7.47668 14.2381 7.47668 14.8429V17.9676H10.7098C11.215 17.9676 11.6192 18.3708 11.6192 18.9756C11.6192 19.4796 11.215 19.8828 10.7098 19.8828H7.47668V23.1083C7.47668 23.6123 7.07254 24.1163 6.56736 24.1163C5.96114 24.1163 5.55699 23.6123 5.55699 23.1083V19.8828H2.32383C1.81865 19.8828 1.41451 19.4796 1.41451 18.9756C1.41451 18.3708 1.81865 17.9676 2.32383 17.9676H5.55699V14.8429ZM76.9896 28.9546C77.5959 28.9546 78 29.4586 78 29.9626C78 30.5674 77.5959 30.9706 76.9896 30.9706H73.8575V34.0954C73.8575 34.7001 73.4534 35.1033 72.8472 35.1033C72.342 35.1033 71.9378 34.7001 71.9378 34.0954V30.9706H68.7047C68.1995 30.9706 67.6943 30.5674 67.6943 29.9626C67.6943 29.4586 68.1995 28.9546 68.7047 28.9546H71.9378V25.8299C71.9378 25.3259 72.342 24.8219 72.8472 24.8219C73.4534 24.8219 73.8575 25.3259 73.8575 25.8299V28.9546H76.9896ZM43.3446 23.9147L52.3368 31.0714C52.7409 31.3738 52.842 31.9786 52.5389 32.4826C52.1347 32.8858 51.5285 32.9866 51.1244 32.5834L42.1321 25.5275L32.7358 28.8538C32.2306 29.0554 31.7254 28.753 31.5233 28.2491C31.3212 27.7451 31.6244 27.2411 32.1295 27.0395L41.4249 23.6123L43.2435 12.7261C43.3446 12.2221 43.8497 11.9197 44.3549 11.9197C44.8601 12.0205 45.2643 12.5245 45.1632 13.1293L43.3446 23.9147ZM56.7824 18.774L45.3653 9.70215C45.2643 9.60136 45.1632 9.60136 45.0622 9.60136C44.9611 9.60136 44.8601 9.60136 44.7591 9.60136L44.658 9.70215H44.456C44.456 9.70215 31.4223 14.8429 31.3212 14.8429H31.2202C31.1192 14.9437 31.0181 14.9437 30.9171 15.0445C30.8161 15.1453 30.8161 15.1453 30.8161 15.3469L28.6943 29.4586C28.6943 29.6602 28.6943 29.8618 28.6943 30.0634C28.6943 30.1642 28.7953 30.1642 28.7953 30.1642L40.2124 39.3369C40.3135 39.4377 40.4145 39.5385 40.5155 39.5385L54.2565 34.1962C54.4585 34.1962 54.6606 34.0954 54.6606 33.9946C54.7617 33.9946 54.7617 33.8938 54.7617 33.6922L56.8834 19.278C56.9845 19.278 56.8834 19.1772 56.8834 19.0764C56.8834 18.9756 56.7824 18.8748 56.7824 18.774ZM46.5777 8.19018L57.9948 17.262C58.2979 17.5644 58.601 17.9676 58.7021 18.27C58.9041 18.774 58.9041 19.1772 58.9041 19.5804L56.7824 33.9946C56.6814 34.5993 56.4793 35.0025 56.1762 35.3049C55.8731 35.6073 55.4689 35.9097 54.9637 36.1113L41.1218 41.4536C40.7176 41.6552 40.2124 41.5544 39.8083 41.4536C39.5052 41.252 39.3031 41.1512 39 40.8488L27.5829 31.777C27.1788 31.4746 26.9767 31.0714 26.7746 30.5674C26.6736 30.1642 26.6736 29.6602 26.7746 29.1562L28.7953 15.0445C28.8964 14.4397 29.1995 14.0365 29.5026 13.6333C29.8057 13.3309 30.3109 13.0285 30.715 12.9277C31.8264 12.5245 42.2332 8.59337 44.1529 7.78699C44.557 7.58539 44.9611 7.58539 45.3653 7.68619C45.8705 7.68619 46.2746 7.88778 46.5777 8.19018ZM12.1244 64.3349C12.5285 64.7381 12.5285 65.4436 12.1244 65.746C11.7202 66.1492 11.114 66.1492 10.7098 65.746L7.98187 63.0245C7.57772 62.6213 7.57772 62.0165 7.98187 61.6133C8.38601 61.2101 8.99223 61.2101 9.39637 61.6133L12.1244 64.3349ZM9.29534 56.1702L2.42487 63.1253L18.9948 79.6562L25.8653 72.7011L9.29534 56.1702ZM0.303109 62.4197L8.58808 54.1542C8.99223 53.751 9.59845 53.751 10.0026 54.1542L11.9223 55.9686L17.7824 50.1223C18.6917 49.3159 19.9041 48.2071 21.3187 47.2999C22.8342 46.292 24.6529 45.5864 26.4715 45.5864H34.6554C36.07 45.5864 37.5855 46.3928 39 47.0983C40.0104 47.7031 41.0207 48.3079 41.728 48.3079H50.013C51.4275 48.3079 52.5389 48.8119 53.2461 49.7191L60.7228 46.292C61.4301 44.4776 62.3394 42.9656 63.5518 41.8568C64.5622 40.748 65.7746 40.0425 66.886 39.6393C68.1995 39.1353 69.4119 39.1353 70.4223 39.4377C71.0285 39.6393 71.5337 39.9417 71.9378 40.4457L72.443 40.8488L68.1995 51.4327L54.3575 65.3428C53.3472 66.25 52.1347 66.9556 50.9223 67.4596C49.5078 67.9636 48.0933 68.1652 46.5777 68.1652H30.0078C29.4016 68.1652 28.5933 68.4676 27.886 68.9716C27.2798 69.274 26.6736 69.6772 26.0674 70.1812L27.987 71.9955C28.3912 72.3987 28.3912 73.0035 27.987 73.4067L19.7021 81.6722C19.2979 82.0754 18.6917 82.0754 18.2876 81.6722L0.303109 63.7301C-0.101036 63.4277 -0.101036 62.7221 0.303109 62.4197ZM13.3368 57.3798L24.6529 68.77C25.3601 68.1652 26.1684 67.6612 26.8756 67.258C27.886 66.6532 28.9974 66.25 30.0078 66.25H46.5777C47.8912 66.25 49.1036 66.0484 50.215 65.6452C51.2254 65.2421 52.1347 64.6373 52.943 63.9317L66.4819 50.3239L70.1192 41.4536C70.0181 41.4536 69.9171 41.3528 69.8161 41.3528C69.2098 41.1512 68.4016 41.1512 67.5933 41.4536C66.6839 41.756 65.7746 42.3608 64.8653 43.268C63.8549 44.276 63.0466 45.5864 62.4404 47.2999L62.3394 47.7031L54.2565 51.5335C54.4585 52.1383 54.5596 52.7431 54.5596 53.4486C54.5596 54.8598 54.0544 56.1702 53.3472 57.0774C52.5389 57.9846 51.4275 58.5894 50.013 58.5894H35.5648C34.9585 58.5894 34.5544 58.0854 34.5544 57.5814C34.5544 56.9766 34.9585 56.5734 35.5648 56.5734H50.013C50.8212 56.5734 51.4275 56.271 51.8316 55.767C52.2358 55.263 52.5389 54.4566 52.5389 53.4486C52.5389 52.4407 52.2358 51.6343 51.8316 51.0295C51.4275 50.5255 50.8212 50.3239 50.013 50.3239H41.728C40.5155 50.3239 39.3031 49.6183 37.9896 48.9127C36.7772 48.2071 35.5648 47.5015 34.6554 47.5015H26.4715C25.057 47.5015 23.6425 48.1063 22.4301 48.9127C21.1166 49.7191 20.0052 50.7271 19.1969 51.5335L16.4689 54.1542L13.3368 57.3798ZM25.8653 4.15825C26.4715 4.15825 26.8756 4.56144 26.8756 5.16623C26.8756 5.67022 26.4715 6.17421 25.8653 6.17421H22.7332V9.29896C22.7332 9.80295 22.228 10.3069 21.7228 10.3069C21.2176 10.3069 20.7124 9.80295 20.7124 9.29896V6.17421H17.5803C17.0751 6.17421 16.5699 5.67022 16.5699 5.16623C16.5699 4.56144 17.0751 4.15825 17.5803 4.15825H20.7124V1.0335C20.7124 0.428706 21.2176 0.0255127 21.7228 0.0255127C22.228 0.0255127 22.7332 0.428706 22.7332 1.0335V4.15825H25.8653Z" fill="white"/>
</g>
<defs>
<clipPath id="clip0_0_269">
<rect width="78" height="82" fill="white"/>
</clipPath>
</defs>
</svg>
