<svg width="74" height="68" viewBox="0 0 74 68" fill="none" xmlns="http://www.w3.org/2000/svg">
<path d="M8.44876 62.0351C8.44876 62.6316 7.86608 63.2281 7.2834 63.2281C6.40939 63.2281 6.11805 62.6316 6.11805 62.0351C6.11805 61.4386 6.40939 60.8421 7.2834 60.8421C7.86608 60.8421 8.44876 61.4386 8.44876 62.0351ZM5.82671 56.0702H68.1732C68.7558 56.0702 69.6299 56.3684 70.2125 56.6667C71.0866 56.9649 71.6692 57.2632 72.2519 57.8596C72.8346 58.4561 73.1259 59.0526 73.4173 59.9474C73.7086 60.5439 73.9999 61.4386 73.9999 62.0351C73.9999 62.9298 73.7086 63.8246 73.4173 64.4211C73.1259 65.0175 72.8346 65.614 72.2519 66.2105C71.0866 67.4035 69.6299 68 68.1732 68H5.82671C4.95269 68 4.07868 68 3.496 67.7018C2.91332 67.4035 2.03931 66.807 1.74797 66.2105C0.582616 65.3158 -6.10352e-05 63.8246 -6.10352e-05 62.0351C-6.10352e-05 61.4386 -6.10352e-05 60.5439 0.291278 59.9474C0.582616 59.0526 1.16529 58.4561 1.74797 57.8596C2.03931 57.2632 2.91332 56.9649 3.496 56.6667C4.07868 56.3684 4.95269 56.0702 5.82671 56.0702ZM68.1732 58.1579H5.82671C5.24403 58.1579 4.66136 58.4561 4.37002 58.4561C3.78734 58.7544 3.496 59.0526 2.91332 59.3509C2.62199 59.6491 2.33065 60.2456 2.33065 60.5439C2.03931 61.1404 2.03931 61.4386 2.03931 62.0351C2.03931 62.6316 2.03931 63.2281 2.33065 63.5263C2.33065 64.1228 2.62199 64.4211 2.91332 65.0175C3.78734 65.614 4.66136 65.9123 5.82671 65.9123H68.1732C68.7558 65.9123 69.0472 65.9123 69.6299 65.614C69.9212 65.614 70.5039 65.3158 70.7952 65.0175C71.3779 64.1228 71.9606 63.2281 71.9606 62.0351C71.9606 61.4386 71.9606 61.1404 71.6692 60.5439C71.3779 60.2456 71.0866 59.6491 70.7952 59.3509C70.5039 59.0526 69.9212 58.7544 69.6299 58.4561C69.0472 58.4561 68.7558 58.1579 68.1732 58.1579ZM60.307 29.2281C59.7243 29.2281 59.1417 28.6316 59.1417 28.0351V22.3684H57.9763C57.685 22.3684 57.1023 21.7719 57.1023 21.4737L55.0629 14.9123H42.244L40.496 21.4737C40.2047 21.7719 39.9133 22.3684 39.3307 22.3684H38.4566V28.0351C38.4566 28.6316 38.1653 29.2281 37.2913 29.2281C36.7086 29.2281 36.1259 28.6316 36.1259 28.0351V22.3684H35.2519C34.6692 22.3684 34.3779 21.7719 34.0866 21.4737L32.0472 14.9123H19.5196L17.4803 21.4737C17.4803 21.7719 16.8976 22.3684 16.3149 22.3684H15.4409V28.0351C15.4409 28.6316 14.8582 29.2281 14.2755 29.2281C13.6929 29.2281 13.1102 28.6316 13.1102 28.0351V22.3684H12.2362C11.9448 22.3684 11.3621 21.7719 11.3621 21.4737L9.32277 14.9123H6.11805C5.24403 14.9123 4.95269 14.3158 4.95269 13.7193V1.19298C4.95269 0.596491 5.24403 0 6.11805 0C6.70073 0 6.99207 0.596491 6.99207 1.19298V12.5263H67.5905V1.19298C67.5905 0.596491 67.8818 0 68.7558 0C69.3385 0 69.9212 0.596491 69.9212 1.19298V13.7193C69.9212 14.3158 69.3385 14.9123 68.7558 14.9123H65.2598L63.2204 21.4737C63.2204 21.7719 62.6377 22.3684 62.3464 22.3684H61.4724V28.0351C61.4724 28.6316 60.8897 29.2281 60.307 29.2281ZM60.307 33.4035C59.7243 33.4035 59.1417 33.1053 59.1417 32.5088V31.614C59.1417 31.0175 59.7243 30.4211 60.307 30.4211C60.8897 30.4211 61.4724 31.0175 61.4724 31.614V32.5088C61.4724 33.1053 60.8897 33.4035 60.307 33.4035ZM37.2913 33.4035C36.7086 33.4035 36.1259 33.1053 36.1259 32.5088V31.614C36.1259 31.0175 36.7086 30.4211 37.2913 30.4211C38.1653 30.4211 38.4566 31.0175 38.4566 31.614V32.5088C38.4566 33.1053 38.1653 33.4035 37.2913 33.4035ZM14.2755 33.4035C13.6929 33.4035 13.1102 33.1053 13.1102 32.5088V31.614C13.1102 31.0175 13.6929 30.4211 14.2755 30.4211C14.8582 30.4211 15.4409 31.0175 15.4409 31.614V32.5088C15.4409 33.1053 14.8582 33.4035 14.2755 33.4035ZM57.3936 14.9123L58.8503 19.9825H61.4724L62.9291 14.9123H57.3936ZM34.6692 14.9123L36.1259 19.9825H38.4566L39.9133 14.9123H34.6692ZM11.6535 14.9123L13.1102 19.9825H15.7322L17.1889 14.9123H11.6535ZM64.6771 37.2807H64.3858L65.2598 39.0702C65.5511 39.0702 65.5511 39.3684 65.5511 39.6667V51.5965C65.5511 52.193 64.9684 52.7895 64.3858 52.7895H55.937C55.3543 52.7895 54.7716 52.193 54.7716 51.5965V39.6667C54.7716 39.3684 54.7716 39.3684 55.0629 39.0702L55.937 37.2807H55.6456C55.0629 37.2807 54.4803 36.6842 54.4803 36.0877C54.4803 35.4912 55.0629 34.8947 55.6456 34.8947H57.9763H62.3464H64.6771C65.2598 34.8947 65.8425 35.4912 65.8425 36.0877C65.8425 36.6842 65.2598 37.2807 64.6771 37.2807ZM57.1023 50.4035H63.2204V39.9649L61.7637 37.2807H58.559L57.1023 39.9649V50.4035ZM41.6614 37.2807H41.37L42.5354 39.0702C42.5354 39.0702 42.5354 39.3684 42.5354 39.6667V51.5965C42.5354 52.193 41.9527 52.7895 41.37 52.7895H33.2125C32.6299 52.7895 32.0472 52.193 32.0472 51.5965V39.6667C32.0472 39.3684 32.0472 39.3684 32.0472 39.0702L33.2125 37.2807H32.9212C32.3385 37.2807 31.7558 36.6842 31.7558 36.0877C31.7558 35.4912 32.3385 34.8947 32.9212 34.8947H34.9606H39.3307H41.6614C42.5354 34.8947 42.8267 35.4912 42.8267 36.0877C42.8267 36.6842 42.5354 37.2807 41.6614 37.2807ZM34.3779 50.4035H40.2047V39.9649L38.748 37.2807H35.8346L34.3779 39.9649V50.4035ZM18.9369 37.2807H18.6456L19.5196 39.0702C19.5196 39.0702 19.811 39.3684 19.811 39.6667V51.5965C19.811 52.193 19.2283 52.7895 18.6456 52.7895H10.1968C9.61411 52.7895 9.03144 52.193 9.03144 51.5965V39.6667C9.03144 39.3684 9.03144 39.3684 9.32277 39.0702L10.1968 37.2807H9.90545C9.32277 37.2807 8.7401 36.6842 8.7401 36.0877C8.7401 35.4912 9.32277 34.8947 9.90545 34.8947H12.2362H16.6062H18.9369C19.5196 34.8947 20.1023 35.4912 20.1023 36.0877C20.1023 36.6842 19.5196 37.2807 18.9369 37.2807ZM11.3621 50.4035H17.4803V39.9649L16.0236 37.2807H12.8188L11.3621 39.9649V50.4035ZM68.7558 62.0351C68.7558 62.6316 68.1732 63.2281 67.2992 63.2281C66.7165 63.2281 66.1338 62.6316 66.1338 62.0351C66.1338 61.4386 66.7165 60.8421 67.2992 60.8421C68.1732 60.8421 68.7558 61.4386 68.7558 62.0351ZM58.559 62.0351C58.559 62.6316 57.9763 63.2281 57.3936 63.2281C56.811 63.2281 56.2283 62.6316 56.2283 62.0351C56.2283 61.4386 56.811 60.8421 57.3936 60.8421C57.9763 60.8421 58.559 61.4386 58.559 62.0351ZM48.6535 62.0351C48.6535 62.6316 48.0708 63.2281 47.1968 63.2281C46.6141 63.2281 46.0314 62.6316 46.0314 62.0351C46.0314 61.4386 46.6141 60.8421 47.1968 60.8421C48.0708 60.8421 48.6535 61.4386 48.6535 62.0351ZM38.4566 62.0351C38.4566 62.6316 37.874 63.2281 37.2913 63.2281C36.7086 63.2281 36.1259 62.6316 36.1259 62.0351C36.1259 61.4386 36.7086 60.8421 37.2913 60.8421C37.874 60.8421 38.4566 61.4386 38.4566 62.0351ZM28.5511 62.0351C28.5511 62.6316 27.9684 63.2281 27.3858 63.2281C26.5118 63.2281 25.9291 62.6316 25.9291 62.0351C25.9291 61.4386 26.5118 60.8421 27.3858 60.8421C27.9684 60.8421 28.5511 61.4386 28.5511 62.0351ZM18.6456 62.0351C18.6456 62.6316 18.0629 63.2281 17.1889 63.2281C16.6062 63.2281 16.0236 62.6316 16.0236 62.0351C16.0236 61.4386 16.6062 60.8421 17.1889 60.8421C18.0629 60.8421 18.6456 61.4386 18.6456 62.0351Z" fill="white"/>
</svg>
