<svg width="63" height="70" viewBox="0 0 63 70" fill="none" xmlns="http://www.w3.org/2000/svg">
<path d="M52.64 27.0968C53.2 26.8145 54.04 26.8145 54.32 27.379C54.88 27.9435 54.6 28.7903 54.32 29.0726L53.48 29.6371V31.0484C53.48 32.1774 52.92 33.0242 52.36 33.871C51.8 34.4355 50.96 34.7177 49.84 35.2823L49.28 35.5645L50.12 35.8468C50.12 36.129 50.4 36.129 50.68 36.129C50.96 36.4113 51.52 36.6936 52.36 36.6936H53.76H58.24C58.52 36.6936 58.52 36.6936 58.8 36.6936C59.36 36.4113 59.92 36.129 60.2 35.5645C60.48 35 60.48 34.4355 60.48 33.871C60.48 33.5887 60.48 33.3064 60.48 33.0242C59.64 31.0484 57.4 25.6855 57.4 25.6855C56.56 23.9919 56 22.8629 55.16 22.2984C54.32 21.7339 52.92 21.4516 51.24 21.4516H40.32H36.12C35.84 21.4516 35.56 21.4516 35.28 21.4516C34.44 21.7339 33.88 22.0161 33.32 22.5806C32.76 23.1452 32.48 23.7097 32.48 24.5565C32.48 24.8387 32.48 24.8387 32.76 25.121C32.76 26.25 33.32 27.379 33.6 28.5081C33.88 29.0726 34.16 29.6371 34.44 30.2016C34.72 31.0484 35 31.8952 35.28 32.4597C35.28 32.7419 35.56 33.3064 35.84 33.3064L38.08 35.5645L38.36 35.8468C38.92 36.4113 39.48 36.4113 40.04 36.6936C40.6 36.6936 41.44 36.6936 42 36.4113L49 33.3064V33.0242C49.84 32.7419 50.4 32.4597 50.68 32.1774C50.96 31.8952 50.96 31.6129 50.96 31.0484V30.2016H42C41.44 30.2016 41.16 29.9194 40.88 29.3548L40.04 27.379C39.76 26.8145 40.04 26.25 40.6 25.9677C41.16 25.6855 42 25.9677 42.28 26.5323L42.84 27.9435H51.8L52.64 27.0968ZM18.48 26.8145C18.48 27.379 17.92 27.9435 17.36 27.9435C16.52 27.9435 15.96 27.379 15.96 26.8145V23.9919C15.96 22.8629 15.68 21.7339 14.84 21.1694C14.28 20.3226 13.16 20.0403 12.04 20.0403C10.92 20.0403 10.08 20.3226 9.24 21.1694C8.68 21.7339 8.12 22.8629 8.12 23.9919V26.8145C8.12 27.9435 8.68 29.0726 9.24 29.6371C10.08 30.4839 10.92 30.7661 12.04 30.7661C12.88 30.7661 13.44 31.3306 13.44 32.1774C13.44 32.7419 12.88 33.3064 12.04 33.3064C10.36 33.3064 8.68 32.4597 7.56 31.3306C6.44 30.2016 5.88 28.5081 5.88 26.8145V23.9919C5.88 22.2984 6.44 20.6048 7.56 19.4758C8.68 18.3468 10.36 17.5 12.04 17.5C14 17.5 15.4 18.3468 16.52 19.4758C17.64 20.6048 18.48 22.2984 18.48 23.9919V26.8145ZM5.88 46.8548C5.88 46.0081 6.44 45.4436 7 45.4436C7.56 45.4436 8.12 46.0081 8.12 46.8548V58.4274V68.871C8.12 69.4355 7.56 70 7 70C6.44 70 5.88 69.4355 5.88 68.871V59.5564C4.48 59.2742 3.08 58.7097 2.24 57.5806H1.96C0.84 56.1694 0 54.4758 0 52.7823V45.1613C0 42.621 1.4 40.6452 3.36 38.9516C5.6 37.5403 8.4 36.6936 11.48 36.6936C12.04 36.6936 12.6 37.2581 12.6 37.8226C12.6 38.6694 12.04 39.2339 11.48 39.2339C8.96 39.2339 6.44 39.7984 4.76 40.9274C3.36 42.0564 2.24 43.4677 2.24 45.1613V52.7823C2.24 53.9113 2.8 55.0403 3.64 55.8871H3.92C4.48 56.4516 5.04 57.0161 5.88 57.0161V46.8548ZM33.04 17.2177C33.04 18.0645 32.48 18.629 31.92 18.629C31.08 18.629 30.52 18.0645 30.52 17.2177V15.2419C30.52 14.1129 30.24 12.9839 29.68 12.1371C28.84 11.5726 28 11.2903 26.6 11.2903C25.48 11.2903 24.64 11.5726 23.8 12.1371C23.24 12.9839 22.68 14.1129 22.68 15.2419V17.7823C22.68 19.1935 23.24 20.3226 23.8 20.8871C24.64 21.7339 25.48 22.0161 26.6 22.0161C27.44 22.0161 28 22.5806 28 23.1452C28 23.9919 27.44 24.2742 26.6 24.2742C24.92 24.2742 23.24 23.7097 22.12 22.5806C21 21.4516 20.44 19.7581 20.44 17.7823V15.2419C20.44 13.2661 21 11.8548 22.12 10.7258C23.24 9.59677 24.92 8.75 26.6 8.75C28.56 8.75 30.24 9.59677 31.36 10.7258C32.48 11.8548 33.04 13.2661 33.04 15.2419V17.2177ZM20.44 37.8226C20.44 37.2581 21 36.6936 21.56 36.6936C22.4 36.6936 22.68 37.2581 22.68 37.8226V54.1936V68.871C22.68 69.4355 22.4 70 21.56 70C21 70 20.44 69.4355 20.44 68.871V55.3226C19.04 55.0403 17.64 54.1936 16.8 53.0645C15.4 51.9355 14.56 49.9597 14.56 48.2661V36.4113C14.56 33.871 16.24 31.8952 18.48 30.2016C21 28.7903 24.36 27.9435 27.44 27.9435C28 27.9435 28.56 28.5081 28.56 29.0726C28.56 29.6371 28 30.2016 27.44 30.2016C24.92 30.2016 21.84 31.0484 19.6 32.4597C17.92 33.3064 17.08 34.7177 17.08 36.4113V48.2661C17.08 49.3952 17.64 50.5242 18.48 51.371C19.04 51.9355 19.6 52.5 20.44 52.7823V37.8226ZM45.36 48.2661C45.36 47.7016 45.64 47.1371 46.48 47.1371C47.04 47.1371 47.6 47.7016 47.6 48.2661V68.871C47.6 69.4355 47.04 70 46.48 70C45.64 70 45.36 69.4355 45.36 68.871V48.2661ZM49 38.1048C48.44 37.8226 47.32 37.2581 46.76 36.9758L43.12 38.6694H42.84C41.72 39.2339 40.6 39.2339 39.48 38.9516C39.2 38.9516 38.92 38.9516 38.92 38.6694V68.871C38.92 69.4355 38.36 70 37.8 70C36.96 70 36.4 69.4355 36.4 68.871V37.2581L34.16 35C33.88 34.7177 33.32 34.1532 33.04 33.3064C32.76 32.7419 32.48 31.6129 32.2 30.7661C31.92 30.4839 31.64 29.9194 31.64 29.3548C31.08 28.2258 30.52 26.8145 30.24 25.6855C30.24 25.121 30.24 24.8387 30.24 24.5565C30.24 23.1452 30.8 22.0161 31.64 20.8871C32.48 20.0403 33.6 19.4758 34.72 19.1935C35.28 19.1935 35.84 19.1935 36.12 19.1935H40.32H51.24C53.48 19.1935 55.16 19.4758 56.56 20.3226C57.68 21.1694 58.8 22.5806 59.64 24.5565C59.64 25.121 61.88 30.2016 62.72 32.4597C63 32.7419 63 33.3064 63 33.871C63 35 62.72 36.129 62.16 36.9758C61.6 37.8226 60.76 38.3871 59.64 38.9516C59.08 38.9516 58.52 39.2339 58.24 39.2339H54.88V68.871C54.88 69.4355 54.32 70 53.76 70C53.2 70 52.64 69.4355 52.64 68.871V39.2339H52.36C50.96 39.2339 50.12 38.6694 49.56 38.3871C49.28 38.1048 49.28 38.1048 49 38.1048ZM43.4 16.9355C41.44 16.9355 39.76 16.0887 38.64 14.9597C37.24 13.5484 36.4 11.5726 36.4 9.59677V7.33871C36.4 5.3629 37.24 3.3871 38.64 2.25806C39.76 0.846774 41.44 0 43.4 0C45.64 0 47.32 0.846774 48.44 2.25806C49.84 3.3871 50.4 5.3629 50.4 7.33871V9.59677C50.4 11.5726 49.84 13.5484 48.44 14.9597C47.32 16.0887 45.64 16.9355 43.4 16.9355ZM40.32 13.2661C41.16 14.1129 42.28 14.6774 43.4 14.6774C44.8 14.6774 45.92 14.1129 46.76 13.2661C47.6 12.4194 48.16 11.0081 48.16 9.59677V7.33871C48.16 5.92742 47.6 4.79839 46.76 3.66935C45.92 2.82258 44.8 2.25806 43.4 2.25806C42.28 2.25806 41.16 2.82258 40.32 3.66935C39.48 4.79839 38.92 5.92742 38.92 7.33871V9.59677C38.92 11.0081 39.48 12.4194 40.32 13.2661Z" fill="white"/>
</svg>
