<svg width="72" height="64" viewBox="0 0 72 64" fill="none" xmlns="http://www.w3.org/2000/svg">
<path fill-rule="evenodd" clip-rule="evenodd" d="M53.8319 29.4037H69.4966V17.4415H47.566V31.1128H48.9856C49.2704 31.1128 49.5552 31.3976 49.5552 31.6824C49.84 31.6824 50.1249 31.9672 50.1249 32.252V37.3787H50.9793C51.8006 37.3787 52.3319 37.3787 52.6926 37.4384V30.2581C52.6926 29.6885 53.2623 29.4037 53.8319 29.4037ZM45.8571 16.5871V27.7162C45.2822 26.4513 44.4671 25.183 43.5742 23.9924C42.1501 22.2836 40.4412 20.5747 38.7323 19.4354C37.0235 18.2962 35.5994 17.7266 34.4601 17.7266C33.8905 17.7266 33.6057 17.7266 33.3209 18.0114C32.6373 18.4671 32.6829 18.9228 32.7285 19.3785C32.7399 19.4924 32.7513 19.6063 32.7513 19.7203C33.0361 20.5747 33.0361 21.1443 32.4665 21.9988C31.8968 22.5684 31.612 22.8532 31.0424 23.138C30.7576 23.4228 30.188 23.4228 29.6183 23.4228C25.6309 23.7076 22.7828 24.5621 21.0739 25.7013C19.1453 26.8585 18.0003 28.4075 17.3735 29.6407V20.8591C17.3735 20.5743 16.8039 20.0047 16.2343 20.0047H14.2406V12.5996C14.2406 12.0299 13.671 11.7451 13.3861 11.7451H3.98732C3.41769 11.7451 3.13288 12.0299 3.13288 12.5996V20.0047H0.854378C0.569565 20.0047 -6.10352e-05 20.5743 -6.10352e-05 20.8591V60.1633C-6.10352e-05 60.7329 0.569565 61.0177 0.854378 61.0177H9.57803C9.69931 61.6079 9.82911 62.1785 9.96624 62.727C9.96624 63.0118 10.2511 63.2966 10.2511 63.2966C10.5359 63.5814 10.8207 63.5814 11.1055 63.5814H35.8842H49.84C53.5426 63.5814 53.5426 63.2966 53.5426 62.727C53.6797 62.1785 53.8095 61.608 53.9308 61.0179H70.351C70.9207 61.0179 71.2055 60.7331 71.2055 60.1634V16.5871C71.2055 16.3023 70.9207 15.7326 70.351 15.7326H66.6485V4.90974C66.6485 2.63124 64.6548 0.922363 62.3763 0.922363H54.6863C52.4078 0.922363 50.4141 2.63124 50.4141 4.90974V15.7326H46.7116C46.1419 15.7326 45.8571 16.3023 45.8571 16.5871ZM15.3798 21.9984V31.1128H14.5232C14.2384 31.1128 13.9536 31.3976 13.9536 31.6824C13.6688 31.6824 13.384 31.9672 13.384 32.252V37.3787H12.5296C10.5359 37.3787 10.2511 37.3787 9.96624 38.2331C9.1118 41.9357 8.54218 46.2079 8.54218 50.48C8.54218 53.6204 8.81269 56.6255 9.2605 59.3089H1.70882V50.1949H6.83545C7.40507 50.1949 7.68989 49.6252 7.68989 49.3404V35.9542C7.68989 35.3846 7.40507 35.0998 6.83545 35.0998H1.70882V21.9984H15.3798ZM69.4966 59.309H54.2483C54.5023 57.7872 54.6992 56.1619 54.8222 54.4672H69.4966V59.309ZM69.4966 52.7583H54.9195C54.9505 52.0088 54.9667 51.2485 54.9667 50.48C54.9667 48.6857 54.8662 46.8913 54.6863 45.1391V31.1125H69.4966V52.7583ZM54.6863 2.63124C53.2623 2.63124 52.4078 3.77049 52.4078 4.90974V15.7326H64.6548V4.90974C64.6548 3.77049 63.8003 2.63124 62.3763 2.63124H54.6863ZM5.98101 48.486H1.70882V36.8087H5.98101V48.486ZM4.84176 13.454H12.2469V20.0047H4.84176V13.454ZM11.6751 61.5878H51.5489C52.4034 58.17 52.6882 54.4674 52.6882 50.48C52.6882 46.7775 52.4034 42.7901 51.5489 39.6572H11.6751C11.1055 42.7901 10.8207 46.7775 10.8207 50.48C10.8207 54.4674 11.1055 58.17 11.6751 61.5878ZM47.8464 33.3913H15.6625V37.3787H47.8464V33.3913ZM32.1816 24.8469C31.612 25.2266 31.0424 25.3532 30.4728 25.4798C30.188 25.5431 29.9031 25.6064 29.6183 25.7013C25.6309 25.7013 22.7828 26.8406 21.3588 28.2646C19.9347 29.1191 19.3651 30.2583 19.0803 31.1128H44.7134C44.4286 28.5495 42.4349 25.7013 40.1564 23.4228C38.1627 21.4291 36.169 20.0051 35.0298 19.7203C35.0298 20.5747 35.0298 21.7139 33.8905 23.4228C33.6057 23.9924 33.0361 24.5621 32.1816 24.8469ZM21.9309 53.8974H41.583V46.2074H21.9309V53.8974ZM21.0764 44.4985H42.4374C42.7222 44.4985 43.2918 45.0682 43.2918 45.353V54.7518C43.2918 55.0366 42.7222 55.6062 42.4374 55.6062H21.0764C20.7916 55.6062 20.222 55.0366 20.222 54.7518V45.353C20.222 45.0682 20.7916 44.4985 21.0764 44.4985Z" fill="white"/>
</svg>
