<svg width="63" height="70" viewBox="0 0 63 70" fill="none" xmlns="http://www.w3.org/2000/svg">
<path fill-rule="evenodd" clip-rule="evenodd" d="M26.9457 6.392C26.9457 4.1687 28.753 2.36226 31.1164 2.36226C33.3407 2.36226 35.287 4.1687 35.287 6.392C35.287 8.75426 33.3407 10.5607 31.1164 10.5607C28.753 10.5607 26.9457 8.75426 26.9457 6.392ZM24.7213 6.392C24.7213 10.0049 27.5018 12.784 31.1164 12.784C34.5919 12.784 37.5114 10.0049 37.5114 6.392C37.5114 2.91809 34.5919 0 31.1164 0C27.5018 0 24.7213 2.91809 24.7213 6.392ZM14.4329 13.2009C14.1375 13.4223 13.8421 13.6829 13.526 13.9619L13.526 13.9619C13.2468 14.2082 12.9515 14.4688 12.6256 14.7294L11.0963 13.0619C11.7914 12.5061 12.4865 11.9503 13.0426 11.3944L14.4329 13.2009ZM17.3523 8.75424L18.4645 10.6996C18.256 10.7691 18.0822 10.8733 17.9084 10.9776C17.7347 11.0818 17.5609 11.186 17.3523 11.2555C17.2133 11.3249 17.0395 11.4292 16.8658 11.5334C16.692 11.6376 16.5182 11.7418 16.3792 11.8113L15.128 10.0049C15.545 9.72694 15.9621 9.44903 16.2402 9.31007C16.6572 9.03215 16.9353 8.8932 17.3523 8.75424ZM22.0791 6.80884L22.7742 8.8932C21.9401 9.17111 21.245 9.44902 20.5499 9.72692L20.5499 9.72694L19.7157 7.64258C20.4108 7.22571 21.245 6.94779 22.0791 6.80884ZM39.4577 8.89323C40.1528 9.17113 40.8479 9.44904 41.682 9.72694L42.5161 7.64258C41.682 7.22571 40.9869 6.94779 40.1528 6.80884L39.4576 8.8932L39.4577 8.89323ZM45.7137 11.8113L46.9649 10.0049C46.8404 9.92193 46.7283 9.839 46.6213 9.75976L46.6212 9.75972C46.3694 9.57343 46.1453 9.40755 45.8527 9.31007C45.5746 9.03215 45.1576 8.8932 44.7405 8.75424L43.7673 10.6996C43.9064 10.7691 44.0801 10.8733 44.2539 10.9776C44.4277 11.0818 44.6015 11.186 44.7405 11.2555C45.0023 11.3427 45.2093 11.4847 45.396 11.6127C45.5066 11.6886 45.6101 11.7596 45.7137 11.8113ZM49.4673 14.7294L50.9965 13.0619C50.649 12.784 50.3362 12.5061 50.0234 12.2282L50.0233 12.2281C49.7105 11.9502 49.3977 11.6723 49.0502 11.3944L47.66 13.2009C48.3551 13.6177 48.9112 14.1736 49.4673 14.7294ZM31.1156 45.3C29.2387 45.3 27.4911 44.8262 25.9836 43.9894C26.0277 43.4137 26.2009 42.8698 26.6665 42.5207C27.0836 41.9649 27.7787 41.6869 28.4738 41.6869H33.7567C34.3128 41.6869 35.0079 41.9649 35.4249 42.5207C35.8834 42.8644 36.1529 43.397 36.2334 43.9628C34.7159 44.8161 32.9671 45.3 31.1156 45.3ZM20.6889 34.8782C20.6889 37.9347 21.9472 40.6481 23.9845 42.5395C24.2454 41.929 24.636 41.3542 25.1373 40.8532C25.9714 40.0195 27.2226 39.4636 28.4738 39.4636H33.7567C35.0079 39.4636 36.12 40.0195 37.0932 40.8532C37.5338 41.367 37.8968 41.9583 38.1413 42.5861C40.2244 40.6928 41.5423 37.9599 41.5423 34.8782C41.5423 29.181 36.8155 24.4565 31.1156 24.4565C25.2766 24.4565 20.6889 29.181 20.6889 34.8782ZM31.1156 22.2332C24.0254 22.2332 18.4645 27.9304 18.4645 34.8782C18.4645 41.965 24.0254 47.6622 31.1156 47.6622C38.0667 47.6622 43.7666 41.965 43.7666 34.8782C43.7666 27.9304 38.0667 22.2332 31.1156 22.2332ZM28.3358 32.9329C28.3358 31.4043 29.587 30.1537 31.1163 30.1537C32.5065 30.1537 33.7577 31.4043 33.7577 32.9329C33.7577 34.3224 32.5065 35.573 31.1163 35.573C29.587 35.573 28.3358 34.3224 28.3358 32.9329ZM26.1115 32.9329C26.1115 35.573 28.3358 37.7964 31.1163 37.7964C33.7577 37.7964 35.9821 35.573 35.9821 32.9329C35.9821 30.1537 33.7577 27.9304 31.1163 27.9304C28.3358 27.9304 26.1115 30.1537 26.1115 32.9329ZM58.2242 31.4044C58.1547 31.057 58.0852 30.6749 58.0157 30.2927C57.9462 29.9106 57.8766 29.5285 57.8071 29.1811L60.0314 28.6252L60.4485 31.1265L58.2242 31.4044ZM60.7266 36.1289H58.3632C58.5022 35.712 58.5022 35.2952 58.5022 34.8783C58.5022 34.7534 58.4741 34.6004 58.4432 34.4319C58.4053 34.2256 58.3632 33.9961 58.3632 33.7667L60.7266 33.6277V34.8783V36.1289ZM60.0314 41.2703L57.8071 40.7145C57.8766 40.3671 57.9462 39.985 58.0157 39.6028C58.0852 39.2207 58.1547 38.8386 58.2242 38.4912L60.4485 38.7691L60.0314 41.2703ZM4.07543 39.6028C4.00592 39.2207 3.93641 38.8386 3.8669 38.4912L1.6425 38.7691L2.05958 41.2703L4.28397 40.7145C4.21446 40.3671 4.14495 39.985 4.07543 39.6028ZM3.72787 33.7667L1.50348 33.6277V34.8783V36.1289H3.72787V34.8783V33.7667ZM4.28397 29.1811L2.05958 28.6252L1.6425 31.1265L3.8669 31.4044C3.93641 31.057 4.00592 30.6749 4.07543 30.2927C4.14495 29.9106 4.21446 29.5285 4.28397 29.1811ZM20.5494 60.1682C21.2445 60.4462 21.9396 60.7241 22.7737 61.002L22.0786 63.0864C21.4306 62.9784 20.7826 62.7027 20.1997 62.4548C20.0323 62.3835 19.8703 62.3146 19.7152 62.2526L20.5494 60.1682ZM15.1275 59.8903L16.3787 58.0839C16.5177 58.1534 16.6915 58.2576 16.8653 58.3618C17.0391 58.466 17.2128 58.5702 17.3519 58.6397C17.5604 58.7092 17.7342 58.8134 17.9079 58.9176C18.0817 59.0219 18.2555 59.1261 18.464 59.1955L17.3519 61.141C17.1433 61.0715 16.9695 60.9673 16.7958 60.863C16.622 60.7588 16.4482 60.6546 16.2397 60.5851C16.0713 60.4168 15.852 60.2995 15.6125 60.1714C15.4565 60.088 15.292 60 15.1275 59.8903ZM11.2349 56.8333L12.6251 55.1658C12.951 55.4263 13.2463 55.6869 13.5254 55.9332L13.5254 55.9333L13.5255 55.9333C13.8417 56.2123 14.137 56.4729 14.4324 56.6943L13.1812 58.5008C12.4861 57.9449 11.791 57.3891 11.2349 56.8333ZM49.4673 55.1658C48.9112 55.7216 48.3551 56.2774 47.66 56.6943L49.0502 58.5008C49.3978 58.2228 49.7106 57.9449 50.0234 57.667L50.0236 57.6668C50.3363 57.389 50.649 57.1111 50.9965 56.8333L49.4673 55.1658ZM44.2539 58.9176C44.0801 59.0219 43.9064 59.1261 43.7673 59.1955L44.7405 61.141C45.0313 61.0441 45.3221 60.8796 45.5657 60.7419L45.5657 60.7418C45.6716 60.682 45.7685 60.6272 45.8527 60.5851C46.0612 60.4462 46.235 60.3419 46.4088 60.2377C46.5826 60.1335 46.7563 60.0293 46.9649 59.8903L45.7137 58.0839C45.4356 58.2228 45.1576 58.3618 44.7405 58.6397C44.6015 58.7092 44.4277 58.8134 44.2539 58.9176ZM39.4576 61.002L40.1528 63.0864C40.6784 62.9988 41.1488 62.8009 41.6336 62.5969L41.6336 62.5969C41.9182 62.4772 42.2076 62.3554 42.5161 62.2526L41.682 60.1682C40.8479 60.4462 40.1528 60.7241 39.4577 61.002L39.4576 61.002ZM30.0033 20.5657H32.2277V14.5906H30.0033V20.5657ZM18.0476 28.7642L12.9038 25.7071L14.016 23.7617L19.2988 26.8188L18.0476 28.7642ZM2.75532 18.6202C3.58946 17.3696 4.9797 16.5358 6.36993 16.5358C7.06505 16.5358 7.89919 16.6748 8.45529 17.0916C10.4016 18.2033 11.0967 20.8435 9.98455 22.7889C9.28943 24.0395 7.89919 24.8732 6.36993 24.8732C5.67481 24.8732 4.9797 24.5953 4.28458 24.3174C3.31141 23.7616 2.61629 22.7889 2.33825 21.8162C2.0602 20.7045 2.19922 19.5929 2.75532 18.6202ZM3.17239 26.2628C4.14555 26.8186 5.25774 27.0966 6.36993 27.0966C8.73334 27.0966 10.8187 25.8459 11.9309 23.9005C13.7382 20.8435 12.626 16.9527 9.56748 15.1462C8.59431 14.5904 7.48212 14.3125 6.36993 14.3125C4.14555 14.3125 2.0602 15.5631 0.808984 17.5085C-0.0251579 19.037 -0.164182 20.7045 0.25289 22.372C0.669961 24.0395 1.78215 25.4291 3.17239 26.2628ZM14.016 45.9946L12.9038 44.0492L18.0476 41.1311L19.2988 43.0765L14.016 45.9946ZM4.28423 45.578C4.97934 45.1611 5.67445 45.0221 6.36956 45.0221C7.8988 45.0221 9.28902 45.8559 9.98413 47.1065C11.0963 49.0519 10.4012 51.5531 8.45489 52.8037C7.8988 53.0816 7.06467 53.3595 6.36956 53.3595C4.97934 53.3595 3.58912 52.5258 2.75499 51.2752C1.64281 49.3298 2.33792 46.6896 4.28423 45.578ZM0.808679 52.3868C2.05988 54.3322 4.14521 55.5828 6.36956 55.5828C7.48174 55.5828 8.59391 55.3049 9.56707 54.7491C12.6256 52.9427 13.7377 49.0519 11.9304 45.9948C10.8183 44.0494 8.73294 42.7988 6.36956 42.7988C5.25738 42.7988 4.14521 43.0767 3.17205 43.6326C0.113568 45.439 -0.859586 49.3298 0.808679 52.3868ZM30.0033 55.3048H32.2277V49.1907H30.0033V55.3048ZM26.9457 63.3642C26.9457 61.1409 28.753 59.3344 31.1164 59.3344C33.3407 59.3344 35.287 61.1409 35.287 63.3642C35.287 64.4759 34.7309 65.5875 34.0358 66.2823C33.2017 67.1161 32.2285 67.5329 31.1164 67.5329C28.753 67.5329 26.9457 65.7265 26.9457 63.3642ZM24.7213 63.3642C24.7213 66.9771 27.5018 69.7563 31.1164 69.7563C32.7846 69.7563 34.4529 69.2004 35.5651 67.9498C36.8163 66.6992 37.5114 65.1707 37.5114 63.3642C37.5114 59.8903 34.5919 56.9722 31.1164 56.9722C27.5018 56.9722 24.7213 59.8903 24.7213 63.3642ZM48.0761 45.9946L42.9323 43.0765L44.0444 41.1311L49.1882 44.0492L48.0761 45.9946ZM52.1077 47.1065C52.9418 45.8559 54.332 45.0221 55.7223 45.0221C56.4174 45.0221 57.2515 45.1611 57.8076 45.578C58.7808 46.1338 59.4759 46.9675 59.7539 48.0792C60.032 49.1908 59.893 50.3025 59.3369 51.2752C58.6417 52.5258 57.2515 53.3595 55.7223 53.3595C55.0271 53.3595 54.332 53.0816 53.6369 52.8037C51.6906 51.5531 50.9955 49.0519 52.1077 47.1065ZM52.5247 54.7491C53.4979 55.3049 54.6101 55.5828 55.7223 55.5828C58.0857 55.5828 60.171 54.3322 61.2832 52.3868C62.1173 50.8583 62.3954 49.1908 61.9783 47.5234C61.4222 45.8559 60.449 44.4663 58.9198 43.6326C57.9466 43.0767 56.8344 42.7988 55.7223 42.7988C53.4979 42.7988 51.4126 44.0494 50.1613 45.9948C48.4931 49.0519 49.4662 52.9427 52.5247 54.7491ZM44.0444 28.7642L42.9323 26.8188L48.0761 23.7617L49.1882 25.7071L44.0444 28.7642ZM53.6369 17.0916C54.332 16.6748 55.0271 16.5358 55.7223 16.5358C57.2515 16.5358 58.6417 17.3696 59.3369 18.6202C59.893 19.5929 60.032 20.7045 59.7539 21.8162C59.4759 22.7889 58.7808 23.7616 57.8076 24.3174C57.2515 24.5953 56.4174 24.8732 55.7223 24.8732C54.332 24.8732 52.9418 24.0395 52.1077 22.7889C50.9955 20.8435 51.6906 18.2033 53.6369 17.0916ZM50.1613 23.9005C51.4126 25.8459 53.4979 27.0966 55.7223 27.0966C56.8344 27.0966 57.9466 26.8186 58.9198 26.2628C60.449 25.4291 61.4222 24.0395 61.9783 22.372C62.3954 20.7045 62.1173 19.037 61.2832 17.5085C60.171 15.5631 58.0857 14.3125 55.7223 14.3125C54.6101 14.3125 53.4979 14.5904 52.5247 15.1462C49.4662 16.9527 48.4931 20.8435 50.1613 23.9005Z" fill="#BC9544"/>
</svg>
