<svg width="68" height="57" viewBox="0 0 68 57" fill="none" xmlns="http://www.w3.org/2000/svg">
<path fill-rule="evenodd" clip-rule="evenodd" d="M67.7358 56.351H56.241H7.66315H2.6004V56.351H0V54.1626H2.6004V51.4272H0V49.2388H2.6004V46.5033H0V44.3149H2.6004V41.5795H0V39.3911H2.6004V36.6554H0V34.467H2.6004V31.7316H0V29.5432H2.6004V26.8078H0V24.6194H2.6004V21.8839H0V19.6956H2.6004V16.9599H0V14.7715H2.6004V12.036H0V9.84766H2.6004V7.11221H0V4.92383H2.6004V2.18834H0V0H2.6004H3.69465H4.78983V53.9852C8.15905 52.8381 9.26688 46.3326 10.2604 40.4984L10.2627 40.4852L10.2653 40.4688C11.2221 34.5945 12.0448 29.5432 15.4625 29.5432C18.0417 29.5432 19.1431 32.4198 19.9981 36.3559C20.9338 32.0665 21.6384 27.4335 22.3049 22.9781C24.2207 10.6684 25.9996 0 32.0205 0C38.0233 0 39.6735 10.6042 41.5819 22.8669L41.5992 22.9781L41.6211 23.1159L41.6213 23.1169L41.6221 23.122L41.6224 23.1242L41.623 23.1279L41.6233 23.1299C41.8504 24.5583 42.0802 26.0043 42.3193 27.4507C43.592 20.2656 45.1053 14.7715 49.1259 14.7715C54.0039 14.7715 55.2592 22.416 56.7448 31.4633L56.7888 31.7315L56.8564 32.1315C58.617 42.5621 60.5752 54.1625 67.736 54.1625V56.3509H67.7358V56.351ZM43.4852 33.9403C45.6531 44.805 48.9354 54.1626 56.241 54.1626H62.0827C57.6247 50.0823 56.087 40.9635 54.6709 32.5659L54.5994 32.1418L54.5723 31.9764C53.3497 24.5074 52.1142 16.9599 49.1259 16.9599C46.2743 16.9599 45.0397 24.5021 43.8175 31.9686L43.7891 32.1418L43.7176 32.5659L43.7175 32.5667L43.7171 32.5689C43.6403 33.0242 43.5632 33.4817 43.4852 33.9403ZM36.3058 54.1626H49.9427C46.3401 51.2922 44.0881 45.8688 42.4654 39.5288C41.2367 45.5923 39.5395 51.2029 36.3058 54.1626ZM30.6526 54.1625V54.1626H27.3675V54.1626C23.2434 54.1626 21.911 47.7323 20.9697 41.6136C22.5741 36.0388 23.5669 29.5505 24.4943 23.3884L24.5674 22.926C26.1857 12.6756 27.8413 2.18839 32.0205 2.18839C36.0628 2.18839 37.7169 12.6655 39.3344 22.911L39.4098 23.3884L39.4433 23.5989C39.9896 27.0272 40.5513 30.5519 41.2221 33.9602C39.5262 43.8718 37.397 54.1625 30.6526 54.1625ZM19.5291 45.8963C20.2271 49.1723 21.1725 52.2144 22.8019 54.1626H14.0302C16.3682 52.3173 18.1373 49.417 19.5291 45.8963ZM18.706 41.4609L18.6252 40.9859L18.6098 40.8955L18.5821 40.7291C17.9034 36.6568 17.0825 31.7316 15.4625 31.7316C13.9794 31.7316 13.1605 36.645 12.4823 40.7144L12.4521 40.8955L12.4367 40.9859C11.6026 45.8962 10.6969 51.2275 8.27839 54.1406C13.5169 53.7612 16.6162 48.5184 18.706 41.4609ZM19.7047 7.11221H17.2416V4.92383H19.7047V7.11221ZM12.3152 7.11221H14.7783V4.92383H12.3152V7.11221ZM9.85189 7.11221H7.38879V4.92383H9.85189V7.11221ZM7.38879 12.036H19.7043V9.84766H7.38879V12.036ZM14.7781 16.9599H7.38879V14.7715H14.7781V16.9599Z" fill="#BC9544"/>
</svg>
