<svg width="65" height="72" viewBox="0 0 65 72" fill="none" xmlns="http://www.w3.org/2000/svg">
<path fill-rule="evenodd" clip-rule="evenodd" d="M23.2239 7.38592L25.9489 12.1525L21.7342 16.3651L17.4359 12.0688L20.1968 7.38592H23.2239ZM28.3987 11.7307L28.3771 11.7431C28.4037 11.7856 28.4275 11.8299 28.4481 11.8755H36.2222V1.88257H49.9869V11.8755H61.4343C62.3037 11.8755 63.173 12.31 63.8975 12.8893C64.4771 13.6134 64.7669 14.3375 64.7669 15.3513V52.4263V54.7434V58.7985C64.7669 59.6675 64.4771 60.5364 63.8975 61.1157C63.173 61.695 62.3037 62.1295 61.4343 62.1295H3.33252C2.46317 62.1295 1.59382 61.695 1.01425 61.1157C0.289785 60.5364 0 59.6675 0 58.7985V54.7434V52.4263V15.3513C0 14.3375 0.289785 13.4686 1.01425 12.8893C1.59382 12.31 2.46317 11.8755 3.33252 11.8755H14.8755C14.896 11.8301 14.9197 11.786 14.9462 11.7436L14.9237 11.7307L21.7336 0L28.3987 11.7307ZM49.9869 14.1927V17.0891H59.6959V49.5297H5.21637V17.0891H14.7794V14.1927H3.33252C3.04274 14.1927 2.89785 14.3375 2.60806 14.6271C2.46317 14.772 2.31828 15.0616 2.31828 15.3513V52.4262H62.4486V15.3513C62.4486 15.0616 62.4486 14.772 62.1588 14.6271C62.0139 14.3375 61.7241 14.1927 61.4343 14.1927H49.9869ZM49.9869 19.4063V47.2125H57.2327V19.4063H49.9869ZM47.6687 47.2125V44.461H45.206V42.1438H47.6687V39.537H45.206V37.075H47.6687V34.4681H45.206V32.1509H47.6687V29.544H45.206V27.082H47.6687V24.4751H45.206V22.158H47.6687V19.4063H45.206V17.0891H47.6687V14.4825H45.206V12.1653H47.6687V9.41362H45.206V7.09644H47.6687V4.19975H38.5404V47.2125H47.6687ZM36.2222 47.2125V19.4063H28.5442V47.2125H36.2222ZM36.2222 17.0891V14.1927H28.5442V17.0891H36.2222ZM26.2259 15.2066V47.2125H22.8932V18.5377L26.2259 15.2066ZM17.0977 15.2066L20.575 18.5485V47.2125H17.0977V15.2066ZM14.7794 19.4063V47.2125H7.53465V19.4063H14.7794ZM22.0238 69.0811V64.5913H24.3421V69.0808H40.4251V64.5913H42.7434V69.0811H46.7994V71.3982H17.9658V69.0811H22.0238ZM2.31828 58.7985V54.7435H62.4486V58.7985C62.4486 58.9433 62.4486 59.233 62.1588 59.5226C62.0139 59.6675 61.7241 59.8123 61.4343 59.8123H3.33252C3.12038 59.8123 2.98589 59.7347 2.81537 59.6363C2.75295 59.6002 2.68571 59.5614 2.60806 59.5226C2.56924 59.445 2.53041 59.3778 2.49438 59.3154C2.39592 59.145 2.31828 59.0106 2.31828 58.7985Z" fill="#BC9544"/>
</svg>
