<svg width="62" height="65" viewBox="0 0 62 65" fill="none" xmlns="http://www.w3.org/2000/svg">
<path d="M62 55.7991V59.296C62 60.6644 61.3918 62.0328 60.4796 62.945C59.5673 64.0093 58.199 64.4654 56.8306 64.4654H18.5163C17.1479 64.4654 15.7795 64.0093 14.8673 62.945C13.955 62.0328 13.3469 60.6644 13.3469 59.296V51.3899C13.3469 50.6297 13.955 50.0215 14.7152 50.0215C15.3234 50.0215 15.9316 50.6297 15.9316 51.3899V59.296C15.9316 60.0562 16.2356 60.6644 16.6918 61.1205C17.1479 61.5766 17.9081 61.8807 18.5163 61.8807H56.8306C57.4388 61.8807 58.199 61.5766 58.6551 61.1205C59.1112 60.6644 59.4153 60.0562 59.4153 59.296V55.7991V6.23368C59.4153 5.32144 58.9592 4.40919 58.351 3.80103C57.7428 3.19286 56.8306 2.73674 55.7663 2.73674H47.5561V3.80103C47.5561 4.86531 47.1 5.9296 46.3398 6.68981C45.7316 7.29797 44.6673 7.75409 43.603 7.75409H31.7438C30.6795 7.75409 29.7673 7.29797 29.0071 6.68981C28.2469 5.9296 27.7908 4.86531 27.7908 3.80103V2.73674H19.5805C18.5163 2.73674 17.604 3.19286 16.9958 3.80103C16.3877 4.40919 15.9316 5.32144 15.9316 6.23368V16.7245C15.9316 17.4847 15.3234 18.0929 14.7152 18.0929C13.955 18.0929 13.3469 17.4847 13.3469 16.7245V6.23368C13.3469 4.56123 13.955 3.04082 15.1714 1.82449C16.2356 0.760205 17.7561 0 19.5805 0H29.1591H46.1877H55.7663C57.5908 0 59.1112 0.760205 60.1755 1.82449C61.3918 3.04082 62 4.56123 62 6.23368V55.7991ZM38.4336 48.197L41.3224 44.7001C40.7143 43.7878 40.2581 42.7235 40.2581 41.6593C40.2581 40.2909 40.8663 38.9225 41.7785 38.0103C42.2347 37.5541 42.8428 37.2501 43.451 36.946L41.1704 30.1041C40.8663 30.1041 40.7143 30.1041 40.4102 30.1041C39.3459 30.1041 38.2816 29.8 37.5214 29.3439L33.1122 33.7531C33.4163 34.3613 33.5683 35.1215 33.5683 35.8817C33.5683 36.946 33.2642 37.8582 32.6561 38.6184L35.5449 47.2848H35.6969C36.6091 47.2848 37.5214 47.5889 38.4336 48.197ZM43.9071 43.4837C44.3632 43.7878 44.8194 43.9399 45.2755 43.9399C45.8836 43.9399 46.4918 43.6358 46.9479 43.3317C47.4041 42.8756 47.5561 42.2674 47.5561 41.6593C47.5561 40.899 47.4041 40.4429 46.9479 39.9868C46.4918 39.5307 45.8836 39.2266 45.2755 39.2266C44.6673 39.2266 44.0592 39.5307 43.603 39.9868C43.1469 40.4429 42.9949 40.899 42.9949 41.6593C42.9949 42.2674 43.1469 42.8756 43.603 43.3317C43.7551 43.3317 43.7551 43.3317 43.9071 43.4837ZM43.451 46.2205L40.1061 50.3256C40.2581 50.7817 40.4102 51.3899 40.4102 51.998C40.4102 53.3664 39.802 54.5827 39.0418 55.3429C38.1296 56.2552 36.9132 56.8634 35.6969 56.8634C34.3285 56.8634 33.1122 56.2552 32.2 55.3429C31.4398 54.5827 30.9836 53.5185 30.8316 52.3021L21.405 47.8929C20.3408 48.8052 18.9724 49.2613 17.452 49.2613C15.7795 49.2613 14.2591 48.6531 13.1948 47.5889C12.7387 47.1327 12.4346 46.6766 12.1305 46.2205L4.37644 48.5011C3.61624 48.8052 2.85603 48.3491 2.55195 47.5889C2.39991 46.8286 2.85603 46.2205 3.4642 45.9164L11.3703 43.6358C11.3703 43.4837 11.3703 43.3317 11.3703 43.1797C11.3703 41.5072 11.9785 39.9868 13.1948 38.7705C14.2591 37.7062 15.7795 36.946 17.452 36.946C19.2765 36.946 20.7969 37.7062 21.8612 38.7705C22.0132 38.9225 22.0132 38.9225 22.1652 39.0746L24.4459 37.5541C24.1418 36.946 23.9897 36.4899 23.9897 35.8817C23.9897 34.5133 24.5979 33.449 25.3581 32.5368L22.6214 27.9756C22.1652 28.1276 21.7091 28.1276 21.253 28.1276C19.7326 28.1276 18.2122 27.5194 17.2999 26.4551H17.1479L12.4346 29.1919C12.5867 29.8 12.7387 30.4082 12.7387 30.8643C12.7387 32.3847 12.1305 33.6011 11.2183 34.5133C10.306 35.4256 9.08972 35.8817 7.72135 35.8817C7.41726 35.8817 7.11318 35.8817 6.8091 35.8817L2.55195 45.1562C2.24787 45.9164 1.48766 46.2205 0.727457 45.9164C0.119293 45.6123 -0.184789 44.7001 0.119293 44.0919L4.37644 34.6654C4.37644 34.6654 4.2244 34.5133 4.07236 34.5133C3.16011 33.6011 2.70399 32.2327 2.70399 30.8643C2.70399 29.496 3.16011 28.2796 4.07236 27.3674C4.98461 26.4551 6.35298 25.847 7.72135 25.847C8.93767 25.847 10.002 26.3031 10.9142 27.0633L15.7795 24.0225C15.7795 23.5664 15.6275 23.1102 15.6275 22.5021C15.6275 20.9817 16.2356 19.6133 17.2999 18.701C18.2122 17.6368 19.7326 17.0286 21.253 17.0286C22.7734 17.0286 24.1418 17.6368 25.054 18.701C26.1183 19.6133 26.7265 20.9817 26.7265 22.5021C26.7265 24.1745 26.1183 25.5429 25.054 26.4551C25.054 26.6072 25.054 26.6072 25.054 26.6072L27.7908 31.1684C28.0948 31.1684 28.3989 31.0164 28.8551 31.0164C29.7673 31.0164 30.5275 31.3205 31.2877 31.7766L35.3928 27.5194C34.7846 26.4551 34.3285 25.2388 34.3285 23.8704C34.3285 22.198 34.9367 20.6776 36.153 19.6133C37.2173 18.397 38.7377 17.7888 40.4102 17.7888C42.0826 17.7888 43.7551 18.397 44.8194 19.6133C45.8836 20.6776 46.6439 22.198 46.6439 23.8704C46.6439 25.6949 45.8836 27.2154 44.8194 28.2796C44.5153 28.5837 44.0592 28.8878 43.603 29.1919L46.1877 36.6419C47.252 36.946 48.1643 37.4021 48.7724 38.0103C49.6847 38.9225 50.2928 40.2909 50.2928 41.6593C50.2928 43.0276 49.6847 44.2439 48.7724 45.1562C47.8602 46.0684 46.6439 46.6766 45.2755 46.6766C44.6673 46.6766 44.0592 46.5246 43.451 46.2205ZM30.0714 37.4021C30.2234 37.4021 30.2234 37.2501 30.2234 37.2501C30.6795 36.946 30.8316 36.3378 30.8316 35.8817C30.8316 35.2735 30.6795 34.6654 30.2234 34.3613C29.9193 34.0572 29.3112 33.7531 28.8551 33.7531C28.2469 33.7531 27.7908 34.0572 27.3346 34.3613C27.0306 34.6654 26.7265 35.2735 26.7265 35.8817C26.7265 36.3378 27.0306 36.946 27.3346 37.2501C27.7908 37.7062 28.2469 37.8582 28.8551 37.8582C29.3112 37.8582 29.7673 37.7062 30.0714 37.4021ZM32.9602 48.045L30.3755 40.2909C29.9193 40.4429 29.3112 40.595 28.8551 40.595C27.7908 40.595 26.8785 40.2909 25.9663 39.6827L23.3816 41.3552C23.6857 41.9633 23.6857 42.5715 23.6857 43.1797C23.6857 44.0919 23.5336 45.0042 23.0775 45.7644L31.5918 49.5654C31.7438 49.2613 32.0479 48.9572 32.2 48.6531C32.504 48.5011 32.8081 48.197 32.9602 48.045ZM37.0653 53.5185C37.5214 53.0623 37.6734 52.6062 37.6734 51.998C37.6734 51.5419 37.5214 50.9338 37.0653 50.6297C36.7612 50.1735 36.153 50.0215 35.6969 50.0215C35.0887 50.0215 34.4806 50.1735 34.1765 50.6297C33.7204 50.9338 33.5683 51.5419 33.5683 51.998C33.5683 52.6062 33.7204 53.0623 34.1765 53.5185C34.4806 53.8225 35.0887 54.1266 35.6969 54.1266C36.153 54.1266 36.7612 53.8225 37.0653 53.5185ZM23.2295 24.6307C23.6857 24.0225 23.9897 23.4143 23.9897 22.5021C23.9897 21.7419 23.6857 21.1337 23.2295 20.5255C22.7734 20.0694 22.0132 19.7653 21.253 19.7653C20.3408 19.7653 19.7326 20.0694 19.1244 20.5255C18.6683 21.1337 18.3642 21.7419 18.3642 22.5021C18.3642 23.1102 18.5163 23.5664 18.6683 24.0225C18.8203 24.1745 18.9724 24.4786 19.1244 24.6307C19.7326 25.0868 20.3408 25.3909 21.253 25.3909C22.0132 25.3909 22.7734 25.0868 23.2295 24.6307ZM9.24176 32.5368C9.69788 32.0807 10.002 31.6245 10.002 30.8643C10.002 30.2562 9.69788 29.648 9.24176 29.3439C8.93767 28.8878 8.32951 28.5837 7.72135 28.5837C6.96114 28.5837 6.50502 28.8878 6.04889 29.3439C5.59277 29.648 5.28869 30.2562 5.28869 30.8643C5.28869 31.6245 5.59277 32.0807 6.04889 32.5368C6.50502 32.9929 6.96114 33.297 7.72135 33.297C8.32951 33.297 8.93767 32.9929 9.24176 32.5368ZM40.4102 25.847C39.3459 25.847 38.5857 24.9347 38.5857 23.8704C38.5857 22.8062 39.3459 22.046 40.4102 22.046C41.4745 22.046 42.3867 22.8062 42.3867 23.8704C42.3867 24.9347 41.4745 25.847 40.4102 25.847ZM42.8428 26.4551C43.603 25.6949 43.9071 24.9347 43.9071 23.8704C43.9071 22.9582 43.603 22.046 42.8428 21.4378C42.2347 20.8296 41.4745 20.3735 40.4102 20.3735C39.4979 20.3735 38.5857 20.8296 37.9775 21.4378C37.3693 22.046 36.9132 22.9582 36.9132 23.8704C36.9132 24.9347 37.3693 25.6949 37.9775 26.4551C38.5857 27.0633 39.4979 27.3674 40.4102 27.3674C41.4745 27.3674 42.2347 27.0633 42.8428 26.4551ZM17.452 45.0042C16.5397 45.0042 15.6275 44.2439 15.6275 43.1797C15.6275 42.1154 16.5397 41.2031 17.452 41.2031C18.5163 41.2031 19.4285 42.1154 19.4285 43.1797C19.4285 44.2439 18.5163 45.0042 17.452 45.0042ZM20.0367 45.6123C20.6448 45.0042 20.9489 44.0919 20.9489 43.1797C20.9489 42.2674 20.6448 41.3552 20.0367 40.747C19.4285 40.1388 18.5163 39.6827 17.452 39.6827C16.5397 39.6827 15.6275 40.1388 15.0193 40.747C14.4112 41.3552 14.1071 42.2674 14.1071 43.1797C14.1071 44.0919 14.4112 45.0042 15.0193 45.6123C15.6275 46.2205 16.5397 46.6766 17.452 46.6766C18.5163 46.6766 19.4285 46.2205 20.0367 45.6123ZM44.8194 2.73674H30.5275V3.80103C30.5275 4.10511 30.6795 4.40919 30.8316 4.71327C31.1357 5.01735 31.4397 5.1694 31.7438 5.1694H43.603C43.9071 5.1694 44.2112 5.01735 44.5153 4.71327C44.6673 4.56123 44.8194 4.10511 44.8194 3.80103V2.73674Z" fill="#BC9544"/>
</svg>
