<svg width="71" height="65" viewBox="0 0 71 65" fill="none" xmlns="http://www.w3.org/2000/svg">
<path fill-rule="evenodd" clip-rule="evenodd" d="M56.5585 64.6073H38.6676V62.2999H54.25V12.5466H44.0055V2.3074H10.9657V46.0039H8.51294V0H45.7374L56.5585 10.816V64.6073ZM46.314 3.8932L52.5187 10.095H46.314V3.8932ZM64.0602 8.31974V6.20117H61.7517V8.36467L59.2992 10.816V64.6073H66.6576V59.5597H70.2656V34.8994H67.9571V57.1081H66.6576V10.816L64.0602 8.31974ZM64.3491 62.2999H61.6077V59.5597H64.3491V62.2999ZM64.3491 57.1081H61.6077V36.0532H64.3491V57.1081ZM61.6077 11.8255V33.6016H64.3491V11.8255L62.9062 10.3834L61.6077 11.8255ZM17.3132 12.5466H32.607V10.095H17.3132V12.5466ZM47.7564 36.6302H17.3132V34.3228H47.7564V36.6302ZM17.3132 41.8217H47.7564V39.3701H17.3132V41.8217ZM47.7564 46.8692H32.607V44.5618H47.7564V46.8692ZM19.6217 29.2752H45.4479V17.594H19.6217V29.2752ZM47.7564 31.5826H17.3132V15.2866H47.7564V31.5826ZM4.4736 56.9639C4.4736 54.0797 6.7821 51.7723 9.66773 51.7723C12.5534 51.7723 15.0061 54.0797 15.0061 56.9639C15.0061 59.8482 12.5534 62.2998 9.66773 62.2998C6.7821 62.2998 4.4736 59.8482 4.4736 56.9639ZM2.25384 58.1177C2.81873 61.764 6.00619 64.6072 9.66773 64.6072C13.8519 64.6072 17.3146 61.1461 17.3146 56.9639C17.3146 55.9542 17.1128 54.9949 16.7477 54.1206C16.8709 52.7962 17.974 51.7723 19.3333 51.7723C20.6926 51.7723 21.7958 52.7964 21.9189 54.1209C21.5559 54.9952 21.3541 55.9543 21.3541 56.9639C21.3541 61.1461 24.8169 64.6072 28.8567 64.6072C32.649 64.6072 35.8487 61.764 36.4147 58.1177H38.6673V55.8103H36.4142C35.8467 52.1879 32.6478 49.4648 28.8567 49.4648C26.789 49.4648 24.8725 50.3338 23.494 51.7429C22.6324 50.3665 21.1031 49.4648 19.3333 49.4648C17.5596 49.4648 16.0275 50.3704 15.1669 51.7519C13.7702 50.3375 11.8139 49.4648 9.66773 49.4648C6.00734 49.4648 2.82074 52.1879 2.25437 55.8103H0V58.1177H2.25384ZM28.8567 51.7723C25.9711 51.7723 23.6626 54.0797 23.6626 56.9639C23.6626 59.8482 25.9711 62.2998 28.8567 62.2998C31.7423 62.2998 34.1951 59.8482 34.1951 56.9639C34.1951 54.0797 31.7423 51.7723 28.8567 51.7723Z" fill="#BC9544"/>
</svg>
