<svg width="75" height="75" viewBox="0 0 75 75" fill="none" xmlns="http://www.w3.org/2000/svg">
<path fill-rule="evenodd" clip-rule="evenodd" d="M40.0488 0V3.33587L43.0961 0.290076C42.0803 0.145038 41.0646 0 40.0488 0ZM51.0769 2.46563C51.476 2.61067 51.875 2.75571 52.2378 2.90075L40.0488 15.084V11.7481L49.9161 2.03052C50.2788 2.17554 50.6778 2.32056 51.0768 2.46559L51.0769 2.46563ZM53.98 3.771C54.7055 4.06107 55.4311 4.49619 56.1566 4.9313L43.3872 17.5496C42.9519 17.4771 42.5166 17.3683 42.0812 17.2596C41.6459 17.1508 41.2106 17.042 40.7753 16.9695L53.98 3.771ZM7.54577 36.4046C7.54577 21.0305 19.1543 8.12213 34.2454 6.38167V15.9542C24.3781 17.5496 16.9777 26.2519 16.9777 36.4046C16.9777 40.7557 18.2837 44.8168 20.7505 48.2977L14.0756 54.9695C9.86748 49.7481 7.54577 43.0763 7.54577 36.4046ZM13.0598 57.5802L13.9305 58.4504L23.9428 48.5878L23.2173 47.7176C20.7505 44.3817 19.2994 40.4657 19.2994 36.4046C19.2994 26.9771 26.2645 19.145 35.5514 18.1298L36.5671 17.9847V3.91602H35.2612C18.4288 5.22136 5.22406 19.4351 5.22406 36.4046C5.22406 44.0916 7.98109 51.6336 13.0598 57.5802ZM37.7285 66.4276C30.9084 66.4276 24.3786 64.252 19.0097 60.0459L25.8297 53.2291C29.3123 55.8398 33.3753 57.1451 37.7285 57.1451C47.8859 57.1451 56.4472 49.7482 58.1885 39.8856H67.7656C65.8792 54.9695 52.9647 66.4276 37.7285 66.4276ZM16.5429 60.9161C22.4923 65.9924 30.0378 68.8932 37.7285 68.8932C54.706 68.8932 68.9264 55.6947 70.0873 38.7252L70.2324 37.5649H56.157L56.0119 38.5802C54.8511 47.8627 47.0153 54.8245 37.7285 54.8245C33.6655 54.8245 29.6025 53.3741 26.4101 50.7634L25.5395 50.1833L15.6722 60.1909L16.5429 60.9161ZM0.581168 42.4962C0.508615 42.0611 0.472338 41.6622 0.436061 41.2634C0.399785 40.8645 0.363508 40.4657 0.290955 40.0306L2.61266 39.7405C2.6816 40.1539 2.71778 40.5346 2.75234 40.8981C2.79052 41.2997 2.8267 41.6804 2.90288 42.0611L0.581168 42.4962ZM1.74202 47.2825C1.59692 46.8474 1.48809 46.4485 1.37926 46.0496C1.27043 45.6508 1.1616 45.2519 1.01649 44.8168L3.3382 44.3817C3.41075 44.7443 3.51958 45.1069 3.62841 45.4695C3.73724 45.8321 3.84607 46.1947 3.91862 46.5573L1.74202 47.2825ZM3.4833 51.9237C3.14245 51.3559 2.89055 50.6991 2.65796 50.0927L2.65792 50.0926C2.59348 49.9246 2.53052 49.7604 2.46756 49.6031L4.64416 48.7328C4.93437 49.458 5.22458 50.1832 5.6599 50.9084L3.4833 51.9237ZM5.80501 56.2748L4.49905 54.0993L6.67565 52.939C6.96587 53.6642 7.40119 54.3893 7.83651 54.9695L5.80501 56.2748ZM8.70715 60.1909C8.41693 59.9008 8.16299 59.5745 7.90905 59.2481C7.65512 58.9218 7.40118 58.5955 7.11097 58.3054L8.99736 56.855C9.57773 57.5801 10.013 58.1602 10.4483 58.7403L10.4484 58.7405L8.70715 60.1909ZM12.0446 63.8168L10.3033 62.0764L12.0446 60.4809C12.4799 61.0611 13.0603 61.6413 13.6408 62.0764L12.0446 63.8168ZM14.8743 66.21L14.8742 66.21C14.5477 65.9561 14.2212 65.7023 13.931 65.4123L15.3821 63.6718L15.3822 63.6719L15.3824 63.672L15.3824 63.6721C15.9627 64.1071 16.5431 64.5421 17.2684 64.9771L15.8174 67.0077C15.5272 66.7176 15.2007 66.4638 14.8743 66.21ZM20.0255 69.4733C19.2999 69.1832 18.5744 68.7481 17.8489 68.313L19.1548 66.2825C19.7353 66.7176 20.4608 67.1527 21.1863 67.4428L20.0255 69.4733ZM24.5238 71.5039C24.161 71.3588 23.762 71.2138 23.3629 71.0687C22.9639 70.9237 22.5648 70.7787 22.2021 70.6336L23.2178 68.4581C23.9434 68.7481 24.6689 69.0382 25.2493 69.3283L24.5238 71.5039ZM29.1672 72.9542C29.0656 72.9339 28.9612 72.9136 28.8547 72.8929C28.2007 72.7657 27.4694 72.6235 26.8455 72.3741L27.571 70.0535C27.9338 70.1985 28.2966 70.3073 28.6593 70.4161C29.0221 70.5248 29.3849 70.6336 29.7476 70.7787L29.1672 72.9542ZM34.1008 73.8245C33.6836 73.755 33.2664 73.7188 32.8651 73.684H32.865C32.429 73.6461 32.0118 73.6099 31.634 73.5344L32.0693 71.2138C32.7949 71.2138 33.5204 71.3588 34.2459 71.5039L34.1008 73.8245ZM39.0335 74.1146H36.5667V71.6489H39.0335V74.1146ZM0 37.4197H2.46681V35.0991H0V37.4197ZM59.6385 7.25188C59.0581 6.81676 58.4777 6.38165 57.7521 5.94653L45.2729 18.2748C46.1436 18.5649 46.8691 19 47.5947 19.4351L59.6385 7.25188ZM61.0898 8.41211C61.6703 8.84722 62.2507 9.42738 62.8311 10.0075L50.9324 21.9007C50.3519 21.3205 49.7715 20.8854 49.046 20.4503L61.0898 8.41211ZM47.8845 1.30525C47.4492 1.23273 47.0139 1.12395 46.5786 1.01517C46.1433 0.906395 45.708 0.797617 45.2726 0.725098L40.0488 5.80143V9.13731L47.8845 1.30525ZM69.2151 17.9846C69.6504 18.7098 70.0857 19.435 70.3759 20.1602L57.1712 33.3587C57.0592 32.6869 56.8607 32.015 56.6425 31.2765C56.578 31.0584 56.5118 30.8344 56.4457 30.603L69.2151 17.9846ZM65.734 13.0535C65.2987 12.3283 64.7183 11.7481 64.1379 11.168L52.239 23.2061C52.8194 23.7863 53.2548 24.3665 53.6901 24.9466L65.734 13.0535ZM71.2476 21.9006C71.5378 22.6258 71.8281 23.351 72.1183 24.2212L62.3961 33.9388H59.0587L71.2476 21.9006ZM73.4241 28.8627C73.279 27.9924 72.9888 26.9772 72.6986 26.1069L64.8628 33.939H68.2002L73.4241 28.8627ZM74.0038 32.4885C74.0401 32.9599 74.0764 33.4312 74.1489 33.9388H70.8115L73.8587 31.0381C73.9313 31.5457 73.9675 32.0171 74.0038 32.4885ZM67.5477 15.3742L67.5475 15.3739C67.3299 15.0476 67.1122 14.7212 66.8946 14.3586L54.7056 26.5419C54.9232 26.9044 55.1046 27.267 55.2859 27.6295L55.286 27.6297C55.4674 27.9923 55.6488 28.3548 55.8664 28.7174L68.2005 16.3892C67.9829 16.0267 67.7653 15.7005 67.5477 15.3742ZM38.8884 45.9771H39.1796C40.6306 45.9771 41.9366 45.3969 42.9524 44.3817C43.9681 43.3664 44.5485 41.916 44.5485 40.6107C44.5485 39.1603 43.9681 37.7099 42.9524 36.6946C41.9366 35.6794 40.6306 35.2442 39.1796 35.2442H36.4225C35.5519 35.2442 34.8264 34.8091 34.2459 34.229C33.6655 33.7939 33.3753 32.9236 33.3753 32.1984C33.3753 31.3282 33.6655 30.603 34.2459 30.0229C34.8264 29.4427 35.5519 29.1526 36.4225 29.1526H39.1796C39.9051 29.1526 40.7758 29.4427 41.3562 30.0229C41.7915 30.603 42.2268 31.3282 42.2268 32.1984H44.5485C44.5485 30.7481 43.9681 29.4427 42.9524 28.2824C41.9366 27.4122 40.6306 26.832 39.1796 26.832H38.8884V24.6565H36.5667V26.832H36.4225C34.9715 26.832 33.5204 27.4122 32.5047 28.4275C31.4889 29.4427 31.0536 30.7481 31.0536 32.1984C31.0536 33.6488 31.4889 34.9542 32.5047 35.9694C33.5204 36.9847 34.9715 37.5649 36.4225 37.5649H39.1796C39.9051 37.5649 40.7758 37.8549 41.3562 38.4351C41.7915 39.0152 42.2268 39.7404 42.2268 40.6107C42.2268 41.3359 41.7915 42.061 41.3562 42.6412C40.7758 43.2214 39.9051 43.5114 39.1796 43.5114H36.4225C35.5519 43.5114 34.8264 43.2214 34.2459 42.6412C33.6655 42.061 33.3753 41.3359 33.3753 40.6107H31.0536C31.0536 41.916 31.4889 43.3664 32.5047 44.3817C33.5204 45.3969 34.9715 45.9771 36.4225 45.9771H36.5667V48.1528H38.8884V45.9771Z" fill="#BC9544"/>
</svg>
