<svg width="72" height="51" viewBox="0 0 72 51" fill="none" xmlns="http://www.w3.org/2000/svg">
<path fill-rule="evenodd" clip-rule="evenodd" d="M30.0452 2.41455L41.3687 2.41455V13.7327L30.0452 13.7327L30.0452 2.41455ZM43.7844 1.42551e-06L27.4785 0V16.1473H34.4236V34.4072H20.6844V41.3489H16.1549V34.4072H0V50.7054H16.1549V43.7635H20.6844V50.7054L32.0079 50.7054H50.7295V43.7635H55.1079V50.7054H71.4138V34.4072L55.1079 34.4072V41.3489H50.7295V34.4072H36.8392V16.1473H43.7844V1.42551e-06ZM13.7392 16.1472H2.41569L2.41569 27.6163L13.7392 27.6163L13.7392 16.1472ZM0 13.7326L16.1549 13.7326L16.1549 30.0308L0 30.0308V13.7326ZM68.9981 16.1472H57.5236V27.6163L68.9981 27.6163V16.1472ZM55.1079 13.7326L71.4138 13.7326V30.0308L55.1079 30.0308V13.7326ZM32.0079 48.2908H48.3138L48.3138 36.9727L23.1001 36.9726L23.1001 48.2908H32.0079ZM52.5413 20.6746L41.3687 20.6746V31.8419L43.7844 31.8419V23.0891H52.5413V20.6746ZM30.0452 20.6746L18.7216 20.6746V23.0891L27.4785 23.0891L27.4785 31.8419H30.0452L30.0452 20.6746ZM13.7392 36.9727L2.41569 36.9726L2.41569 48.2908H13.7392L13.7392 36.9727ZM68.9981 36.9727L57.5236 36.9727V48.2908H68.9981V36.9727Z" fill="#BC9544"/>
</svg>
