<svg width="59" height="62" viewBox="0 0 59 62" fill="none" xmlns="http://www.w3.org/2000/svg">
<path d="M54.3529 35.6146V61.2691H4.22745V35.6146C3.32157 35.1618 2.56667 34.7091 1.96274 34.1055C0.754902 32.7473 0 31.0873 0 29.2764V18.8636L9.81372 9.20546V0H48.7667V9.20546L58.4294 18.8636V29.2764C58.4294 30.7855 57.9765 32.2946 57.0706 33.5018C56.3157 34.4073 55.4098 35.1618 54.3529 35.6146ZM3.77451 19.0145H11.1725L15.249 12.0727V10.1109H12.5314V10.2618L3.77451 19.0145ZM14.4941 19.0145H22.3451L23.7039 12.3745V10.1109H18.1176V12.8273L14.4941 19.0145ZM25.2137 19.0145H33.3667L32.0078 12.8273V12.5255V10.1109H26.4216V12.5255V12.8273L25.2137 19.0145ZM36.0843 19.0145H44.0863L40.3118 12.8273V10.1109H34.7255V12.3745L36.0843 19.0145ZM47.2569 19.0145H54.6549L45.898 10.2618V10.1109H43.1804V12.0727L47.2569 19.0145ZM55.7118 21.7309H2.86863V29.2764C2.86863 30.3327 3.17059 31.3891 3.92549 32.1436C4.68039 32.8982 5.73725 33.3509 6.79412 33.3509H6.9451C7.09608 33.3509 6.9451 33.3509 7.09608 33.3509C8.30392 33.3509 9.2098 32.8982 9.9647 32.1436C10.7196 31.3891 11.1725 30.3327 11.1725 29.2764H13.8902C13.8902 30.3327 14.3431 31.2382 14.9471 31.9927C15.551 32.7473 16.6078 33.2 17.5137 33.3509C17.6647 33.3509 17.6647 33.3509 17.8157 33.3509C17.9667 33.3509 17.9667 33.3509 18.1176 33.3509C18.2686 33.3509 18.2686 33.3509 18.4196 33.3509C18.5706 33.3509 18.5706 33.3509 18.7216 33.3509C19.6274 33.2 20.5333 32.7473 21.2882 31.9927C21.8922 31.2382 22.3451 30.3327 22.3451 29.2764H25.0627C25.0627 30.1818 25.3647 31.2382 25.9686 31.8418C26.5725 32.5964 27.4784 33.2 28.5353 33.3509C28.6863 33.3509 28.6863 33.3509 28.8372 33.3509C28.9882 33.3509 29.1392 33.3509 29.2902 33.3509C29.4412 33.3509 29.5921 33.3509 29.5921 33.3509C29.7431 33.3509 29.8941 33.3509 30.0451 33.3509C30.951 33.2 31.8569 32.5964 32.4608 31.8418C33.0647 31.0873 33.3667 30.1818 33.3667 29.2764H36.2353C36.2353 30.1818 36.5372 31.0873 37.1412 31.8418C37.7451 32.5964 38.5 33.0491 39.4059 33.3509C39.5569 33.3509 39.7078 33.3509 39.8588 33.3509C40.0098 33.3509 40.1608 33.3509 40.3118 33.3509C40.6137 33.3509 40.7647 33.3509 40.7647 33.3509C41.0667 33.3509 41.2176 33.3509 41.2176 33.3509C42.2745 33.0491 43.0294 32.5964 43.6333 31.8418C44.2372 31.0873 44.5392 30.1818 44.5392 29.2764H47.2569C47.2569 30.1818 47.7098 31.0873 48.1627 31.8418C48.7667 32.4455 49.5216 33.0491 50.4274 33.2C50.5784 33.3509 50.7294 33.3509 51.0314 33.3509C51.1823 33.3509 51.3333 33.3509 51.4843 33.3509C51.6353 33.3509 51.9372 33.3509 52.0882 33.3509C52.2392 33.3509 52.3902 33.3509 52.5412 33.2C53.447 33.0491 54.2019 32.4455 54.8059 31.8418C55.4098 31.0873 55.7118 30.1818 55.7118 29.2764V21.7309ZM51.4843 58.4018V36.2182C51.1823 36.2182 50.8804 36.2182 50.5784 36.0673C50.4274 36.0673 50.1255 36.0673 49.8235 35.9164C48.3137 35.6146 46.9549 34.7091 46.049 33.5018L45.898 33.3509L45.747 33.5018C44.8412 34.7091 43.4823 35.6146 41.9725 36.0673C41.6706 36.0673 41.3686 36.0673 41.0667 36.0673C40.9157 36.2182 40.6137 36.2182 40.3118 36.2182C40.1608 36.2182 39.8588 36.2182 39.5569 36.0673C39.4059 36.0673 39.1039 36.0673 38.9529 36.0673C37.2921 35.6146 35.9333 34.86 34.8765 33.5018L34.7255 33.3509C34.7255 33.5018 34.7255 33.5018 34.5745 33.6527C33.5176 34.86 32.1588 35.7655 30.498 36.0673C30.3471 36.0673 30.0451 36.0673 29.8941 36.0673C29.5921 36.2182 29.4412 36.2182 29.2902 36.2182C28.9882 36.2182 28.8372 36.2182 28.6863 36.0673C28.3843 36.0673 28.2333 36.0673 28.0823 36.0673H27.7804V58.4018H51.4843ZM6.9451 58.4018H25.0627V34.7091C24.6098 34.4073 24.3078 34.1055 23.8549 33.6527C23.8549 33.5018 23.7039 33.5018 23.7039 33.3509C23.5529 33.5018 23.402 33.6527 23.402 33.8036C22.1941 35.0109 20.6843 35.9164 19.0235 36.0673C18.8725 36.0673 18.7216 36.0673 18.5706 36.2182C18.4196 36.2182 18.2686 36.2182 18.1176 36.2182C17.9667 36.2182 17.8157 36.2182 17.6647 36.2182C17.5137 36.0673 17.3627 36.0673 17.2118 36.0673C15.551 35.9164 14.0412 35.0109 12.8333 33.8036C12.6824 33.6527 12.6824 33.5018 12.5314 33.3509C12.3804 33.6527 12.2294 33.8036 11.9274 33.9546C10.8706 35.3127 9.2098 36.0673 7.24706 36.2182H7.09608C6.9451 36.2182 7.09608 36.2182 6.9451 36.2182V58.4018ZM49.6725 52.5164L45.5961 56.5909L43.6333 54.6291L47.7098 50.5546L49.6725 52.5164ZM49.6725 45.4236L38.5 56.5909L36.5372 54.6291L47.7098 43.4618L49.6725 45.4236ZM22.3451 43.16V48.7436H19.4765V43.16H22.3451ZM45.898 7.54546V2.71636H12.5314V7.54546H45.898Z" fill="#BC9544"/>
</svg>
