<svg width="56" height="60" viewBox="0 0 56 60" fill="none" xmlns="http://www.w3.org/2000/svg">
<path fill-rule="evenodd" clip-rule="evenodd" d="M0 59.6073H16.6394V57.4785H2.12984V8.51533C2.12984 5.05598 4.92525 2.26188 8.38623 2.26188H40.2388C39.6358 2.82839 39.1151 3.48307 38.6963 4.20454C38.0192 5.34494 37.6109 6.68334 37.5472 8.11882C37.5412 8.2503 37.5381 8.3825 37.5381 8.51535V9.57977H37.5384V19.1595H39.6682V9.57977H54.3106V8.51535C54.3106 3.8586 50.5835 0.000143217 45.9246 0C45.9245 0 45.9244 0 45.9244 0H8.38623C3.72722 0 0 3.85851 0 8.51533V59.6073ZM39.8597 6.97084C40.5428 4.27282 42.9757 2.27936 45.8863 2.262C45.899 2.26193 45.9117 2.26189 45.9244 2.26189C48.986 2.26189 51.5152 4.39073 52.0476 7.31788H39.8011C39.817 7.2009 39.8366 7.08519 39.8597 6.97084ZM11.5813 16.8976H8.78593V14.1035H11.5813V16.8976ZM6.52298 11.9747V19.0264H13.7112V11.9747H6.52298ZM16.6398 14.2365H33.0129V11.9747H16.6398V14.2365ZM33.0129 19.0266H16.6398V16.7646H33.0129V19.0266ZM11.5813 26.4774H8.78593V23.6833H11.5813V26.4774ZM6.52298 21.4214V28.6062H13.7112V21.4214H6.52298ZM24.8929 23.8163H16.6398V21.5544H24.8929V23.8163ZM16.6398 28.6061H24.8929V26.3442H16.6398V28.6061ZM8.78593 36.0571H11.5813V33.263H8.78593V36.0571ZM6.52298 38.186V31.0012H13.7112V38.186H6.52298ZM11.5813 45.6369H8.78593V42.8428H11.5813V45.6369ZM6.52298 40.5809V47.7657H13.7112V40.5809H6.52298ZM53.3787 57.4784H39.668V47.1004H53.3787V57.4784ZM53.3787 44.9716H39.668V34.5936H41.6647L41.6964 34.5935H53.3787V44.9716ZM37.5381 44.9716V34.5936V34.5935H34.2105L34.1857 34.5935H23.8272V44.9716H37.5381ZM23.8272 47.1004V57.4784H37.5381V47.1004H23.8272ZM45.1408 32.4646H55.5085V59.6073H21.6973V32.4646H29.9579C29.2855 31.5736 28.8859 30.4669 28.8859 29.2714C28.8859 26.2112 31.2819 23.8163 34.2105 23.8163C36.5355 23.8163 38.4768 25.1975 39.2762 27.2023C39.9523 26.7431 40.7778 26.4774 41.6647 26.4774C43.7945 26.4774 45.6581 28.2071 45.6581 30.469C45.6581 31.1907 45.4684 31.8718 45.1408 32.4646ZM41.6868 32.4646C42.7406 32.4519 43.5283 31.5261 43.5283 30.469C43.5283 29.4046 42.7296 28.6063 41.6647 28.6063C40.4783 28.6063 39.6835 29.3892 39.6682 30.4381V32.4646H41.6868ZM37.5383 30.426L37.5381 30.469V32.4646H34.193C32.4702 32.4549 31.0157 30.9953 31.0157 29.2714C31.0157 27.4087 32.48 25.9451 34.2105 25.9451C36.0741 25.9451 37.5383 27.4087 37.5383 29.2714V30.426Z" fill="#BC9544"/>
</svg>
