<svg width="14" height="18" viewBox="0 0 14 18" fill="none" xmlns="http://www.w3.org/2000/svg">
<path d="M11.1666 0.666748H2.83331C2.17027 0.666748 1.53439 0.93014 1.06555 1.39898C0.596705 1.86782 0.333313 2.50371 0.333313 3.16675V14.8334C0.333313 15.4965 0.596705 16.1323 1.06555 16.6012C1.53439 17.07 2.17027 17.3334 2.83331 17.3334H11.1666C11.8297 17.3334 12.4656 17.07 12.9344 16.6012C13.4033 16.1323 13.6666 15.4965 13.6666 14.8334V3.16675C13.6666 2.50371 13.4033 1.86782 12.9344 1.39898C12.4656 0.93014 11.8297 0.666748 11.1666 0.666748ZM12 14.8334C12 15.0544 11.9122 15.2664 11.7559 15.4227C11.5996 15.579 11.3877 15.6667 11.1666 15.6667H2.83331C2.6123 15.6667 2.40034 15.579 2.24406 15.4227C2.08778 15.2664 1.99998 15.0544 1.99998 14.8334V3.16675C1.99998 2.94573 2.08778 2.73377 2.24406 2.57749C2.40034 2.42121 2.6123 2.33341 2.83331 2.33341H11.1666C11.3877 2.33341 11.5996 2.42121 11.7559 2.57749C11.9122 2.73377 12 2.94573 12 3.16675V14.8334ZM7.59165 12.5751C7.49543 12.4747 7.37565 12.4001 7.2432 12.3579C7.11075 12.3157 6.96984 12.3072 6.83331 12.3334L6.68331 12.3834C6.63021 12.4017 6.57977 12.4269 6.53331 12.4584L6.40831 12.5584C6.33245 12.6377 6.27297 12.7311 6.23331 12.8334C6.1695 12.9852 6.15206 13.1524 6.18321 13.3141C6.21435 13.4757 6.29268 13.6246 6.40831 13.7417C6.49121 13.8151 6.58373 13.8768 6.68331 13.9251C6.83586 13.9879 7.00361 14.0039 7.16531 13.9713C7.32701 13.9387 7.47539 13.8588 7.59165 13.7417C7.7436 13.5886 7.83023 13.3825 7.83331 13.1667C7.83613 13.0574 7.8133 12.949 7.76665 12.8501C7.72444 12.7491 7.66526 12.6561 7.59165 12.5751Z" fill="white"/>
</svg>
