<svg width="18" height="14" viewBox="0 0 18 14" fill="none" xmlns="http://www.w3.org/2000/svg">
<path d="M14.8334 0.333252H3.16669C2.50365 0.333252 1.86776 0.596644 1.39892 1.06549C0.930079 1.53433 0.666687 2.17021 0.666687 2.83325V11.1666C0.666687 11.8296 0.930079 12.4655 1.39892 12.9344C1.86776 13.4032 2.50365 13.6666 3.16669 13.6666H14.8334C15.4964 13.6666 16.1323 13.4032 16.6011 12.9344C17.07 12.4655 17.3334 11.8296 17.3334 11.1666V2.83325C17.3334 2.17021 17.07 1.53433 16.6011 1.06549C16.1323 0.596644 15.4964 0.333252 14.8334 0.333252ZM14.4917 1.99992L9.59169 6.89992C9.51422 6.97803 9.42205 7.04002 9.3205 7.08233C9.21895 7.12464 9.11003 7.14642 9.00002 7.14642C8.89001 7.14642 8.78109 7.12464 8.67954 7.08233C8.57799 7.04002 8.48582 6.97803 8.40835 6.89992L3.50835 1.99992H14.4917ZM15.6667 11.1666C15.6667 11.3876 15.5789 11.5996 15.4226 11.7558C15.2663 11.9121 15.0544 11.9999 14.8334 11.9999H3.16669C2.94567 11.9999 2.73371 11.9121 2.57743 11.7558C2.42115 11.5996 2.33335 11.3876 2.33335 11.1666V3.17492L7.23335 8.07492C7.7021 8.54309 8.33752 8.80605 9.00002 8.80605C9.66252 8.80605 10.2979 8.54309 10.7667 8.07492L15.6667 3.17492V11.1666Z" fill="white"/>
</svg>
