<svg width="18" height="16" viewBox="0 0 18 16" fill="none" xmlns="http://www.w3.org/2000/svg">
<path d="M14.8334 0.5H3.16669C2.50365 0.5 1.86776 0.763392 1.39892 1.23223C0.930079 1.70107 0.666687 2.33696 0.666687 3V9.66667C0.666687 10.3297 0.930079 10.9656 1.39892 11.4344C1.86776 11.9033 2.50365 12.1667 3.16669 12.1667H8.16669V13.8333H4.83335C4.61234 13.8333 4.40038 13.9211 4.2441 14.0774C4.08782 14.2337 4.00002 14.4457 4.00002 14.6667C4.00002 14.8877 4.08782 15.0996 4.2441 15.2559C4.40038 15.4122 4.61234 15.5 4.83335 15.5H13.1667C13.3877 15.5 13.5997 15.4122 13.7559 15.2559C13.9122 15.0996 14 14.8877 14 14.6667C14 14.4457 13.9122 14.2337 13.7559 14.0774C13.5997 13.9211 13.3877 13.8333 13.1667 13.8333H9.83335V12.1667H14.8334C15.4964 12.1667 16.1323 11.9033 16.6011 11.4344C17.07 10.9656 17.3334 10.3297 17.3334 9.66667V3C17.3334 2.33696 17.07 1.70107 16.6011 1.23223C16.1323 0.763392 15.4964 0.5 14.8334 0.5ZM15.6667 9.66667C15.6667 9.88768 15.5789 10.0996 15.4226 10.2559C15.2663 10.4122 15.0544 10.5 14.8334 10.5H3.16669C2.94567 10.5 2.73371 10.4122 2.57743 10.2559C2.42115 10.0996 2.33335 9.88768 2.33335 9.66667V3C2.33335 2.77899 2.42115 2.56702 2.57743 2.41074C2.73371 2.25446 2.94567 2.16667 3.16669 2.16667H14.8334C15.0544 2.16667 15.2663 2.25446 15.4226 2.41074C15.5789 2.56702 15.6667 2.77899 15.6667 3V9.66667Z" fill="white"/>
</svg>
