<svg width="448" height="450" viewBox="0 0 448 450" fill="none" xmlns="http://www.w3.org/2000/svg">
<path d="M49.2375 278.304C77.3258 370.122 170.545 425.316 264.105 403.732L218.355 232.989L49.2375 278.304Z" stroke="#9D7D3B" stroke-width="2.36037" stroke-linecap="round" stroke-linejoin="round" stroke-dasharray="4.72 7.08"/>
<path d="M398.621 170.743C370.533 78.9256 276.124 25.7929 183.753 45.3149L229.504 216.058L398.621 170.743Z" stroke="#9D7D3B" stroke-width="2.36037" stroke-linecap="round" stroke-linejoin="round" stroke-dasharray="4.72 7.08"/>
<path d="M408.683 331.878L363.151 344.079C341.926 368.937 312.454 389.035 278.741 399.811L232.99 229.068L402.108 183.753C407.772 204.892 408.558 227.339 405.656 249.031C403.827 261.721 400.373 274.847 396.483 286.347L408.683 331.878Z" fill="#072733" fill-opacity="0.75"/>
<path d="M45.7512 265.295C24.1674 171.734 77.7358 78.951 169.118 49.2366L214.869 219.98L45.7512 265.295Z" fill="#072733" fill-opacity="0.75"/>
<g filter="url(#filter0_d_0_277)">
<path d="M182.159 71.8856C99.2269 94.1073 49.2297 180.705 71.8871 265.264C94.5446 349.822 181.142 399.819 264.075 377.598C327.494 360.605 372.325 306.763 380.276 245.375C383.614 225.309 381.637 204.924 375.973 183.784C370.309 162.644 361.828 144.002 348.904 128.293C311.324 79.1052 245.578 54.8926 182.159 71.8856Z" fill="white"/>
</g>
<defs>
<filter id="filter0_d_0_277" x="46.4267" y="46.478" width="355.476" height="356.394" filterUnits="userSpaceOnUse" color-interpolation-filters="sRGB">
<feFlood flood-opacity="0" result="BackgroundImageFix"/>
<feColorMatrix in="SourceAlpha" type="matrix" values="0 0 0 0 0 0 0 0 0 0 0 0 0 0 0 0 0 0 127 0" result="hardAlpha"/>
<feOffset/>
<feGaussianBlur stdDeviation="10"/>
<feComposite in2="hardAlpha" operator="out"/>
<feColorMatrix type="matrix" values="0 0 0 0 0 0 0 0 0 0 0 0 0 0 0 0 0 0 0.12 0"/>
<feBlend mode="normal" in2="BackgroundImageFix" result="effect1_dropShadow_0_277"/>
<feBlend mode="normal" in="SourceGraphic" in2="effect1_dropShadow_0_277" result="shape"/>
</filter>
</defs>
</svg>
