<svg width="448" height="450" viewBox="0 0 448 450" fill="none" xmlns="http://www.w3.org/2000/svg">
<path d="M398.621 278.304C370.532 370.121 275.687 424.88 183.753 403.732L229.503 232.989L398.621 278.304Z" stroke="white" stroke-width="2.36037" stroke-linecap="round" stroke-linejoin="round" stroke-dasharray="4.72 7.08"/>
<path d="M49.2368 170.744C77.3251 78.926 170.544 23.7315 264.105 45.3153L218.354 216.059L49.2368 170.744Z" stroke="white" stroke-width="2.36037" stroke-linecap="round" stroke-linejoin="round" stroke-dasharray="4.72 7.08"/>
<path d="M39.6108 330.252L83.5163 342.016C105.932 368.937 135.404 389.034 169.117 399.811L214.868 229.067L45.7506 183.752C40.0862 204.892 39.3002 227.339 42.638 247.405C44.0306 261.721 45.8589 274.411 51.3753 286.347L39.6108 330.252Z" fill="#876726" fill-opacity="0.75"/>
<path d="M402.107 265.295C423.691 171.734 368.932 76.8893 278.74 49.2368L232.99 219.98L402.107 265.295Z" fill="#876726" fill-opacity="0.75"/>
<g filter="url(#filter0_d_0_295)">
<path d="M264.074 71.4495C348.632 94.1069 398.63 180.705 375.972 265.263C353.315 349.822 266.717 399.819 182.158 377.162C118.739 360.169 75.5345 306.763 67.5832 245.374C64.2455 225.308 66.2219 204.923 71.8862 183.784C77.5506 162.644 86.0315 144.002 98.955 128.293C136.535 79.1047 200.655 54.4564 264.074 71.4495Z" fill="white"/>
</g>
<defs>
<filter id="filter0_d_0_295" x="45.9565" y="46.0933" width="355.469" height="356.522" filterUnits="userSpaceOnUse" color-interpolation-filters="sRGB">
<feFlood flood-opacity="0" result="BackgroundImageFix"/>
<feColorMatrix in="SourceAlpha" type="matrix" values="0 0 0 0 0 0 0 0 0 0 0 0 0 0 0 0 0 0 127 0" result="hardAlpha"/>
<feOffset/>
<feGaussianBlur stdDeviation="10"/>
<feComposite in2="hardAlpha" operator="out"/>
<feColorMatrix type="matrix" values="0 0 0 0 0 0 0 0 0 0 0 0 0 0 0 0 0 0 0.12 0"/>
<feBlend mode="normal" in2="BackgroundImageFix" result="effect1_dropShadow_0_295"/>
<feBlend mode="normal" in="SourceGraphic" in2="effect1_dropShadow_0_295" result="shape"/>
</filter>
</defs>
</svg>
